<svg xmlns="http://www.w3.org/2000/svg" viewBox="-5 -22 555 132" width="1110" height="264">
<rect x="-5" y="-22" width="555" height="132" fill="#ffffff"/>
<polygon points="0,88 100,88 100,-12 0,-12" fill="#c9ced4"/>
<circle cx="24.5" cy="81.94" r="0.48" fill="#1b1f24"/>
<circle cx="31.5" cy="81.94" r="0.65" fill="#1b1f24"/>
<circle cx="38.5" cy="81.94" r="0.77" fill="#1b1f24"/>
<circle cx="45.5" cy="81.94" r="0.84" fill="#1b1f24"/>
<circle cx="52.5" cy="81.94" r="0.85" fill="#1b1f24"/>
<circle cx="59.5" cy="81.94" r="0.8" fill="#1b1f24"/>
<circle cx="66.5" cy="81.94" r="0.69" fill="#1b1f24"/>
<circle cx="73.5" cy="81.94" r="0.53" fill="#1b1f24"/>
<circle cx="14" cy="75.88" r="0.4" fill="#1b1f24"/>
<circle cx="21" cy="75.88" r="0.65" fill="#1b1f24"/>
<circle cx="28" cy="75.88" r="0.86" fill="#1b1f24"/>
<circle cx="35" cy="75.88" r="1.03" fill="#1b1f24"/>
<circle cx="42" cy="75.88" r="1.14" fill="#1b1f24"/>
<circle cx="49" cy="75.88" r="1.18" fill="#1b1f24"/>
<circle cx="56" cy="75.88" r="1.16" fill="#1b1f24"/>
<circle cx="63" cy="75.88" r="1.07" fill="#1b1f24"/>
<circle cx="70" cy="75.88" r="0.91" fill="#1b1f24"/>
<circle cx="77" cy="75.88" r="0.71" fill="#1b1f24"/>
<circle cx="84" cy="75.88" r="0.47" fill="#1b1f24"/>
<circle cx="10.5" cy="69.81" r="0.48" fill="#1b1f24"/>
<circle cx="17.5" cy="69.81" r="0.77" fill="#1b1f24"/>
<circle cx="24.5" cy="69.81" r="1.03" fill="#1b1f24"/>
<circle cx="31.5" cy="69.81" r="1.24" fill="#1b1f24"/>
<circle cx="38.5" cy="69.81" r="1.4" fill="#1b1f24"/>
<circle cx="45.5" cy="69.81" r="1.5" fill="#1b1f24"/>
<circle cx="52.5" cy="69.81" r="1.51" fill="#1b1f24"/>
<circle cx="59.5" cy="69.81" r="1.44" fill="#1b1f24"/>
<circle cx="66.5" cy="69.81" r="1.3" fill="#1b1f24"/>
<circle cx="73.5" cy="69.81" r="1.09" fill="#1b1f24"/>
<circle cx="80.5" cy="69.81" r="0.85" fill="#1b1f24"/>
<circle cx="87.5" cy="69.81" r="0.57" fill="#1b1f24"/>
<circle cx="7" cy="63.75" r="0.52" fill="#1b1f24"/>
<circle cx="14" cy="63.75" r="0.84" fill="#1b1f24"/>
<circle cx="21" cy="63.75" r="1.13" fill="#1b1f24"/>
<circle cx="28" cy="63.75" r="1.4" fill="#1b1f24"/>
<circle cx="35" cy="63.75" r="1.62" fill="#1b1f24"/>
<circle cx="42" cy="63.75" r="1.78" fill="#1b1f24"/>
<circle cx="49" cy="63.75" r="1.84" fill="#1b1f24"/>
<circle cx="56" cy="63.75" r="1.81" fill="#1b1f24"/>
<circle cx="63" cy="63.75" r="1.68" fill="#1b1f24"/>
<circle cx="70" cy="63.75" r="1.47" fill="#1b1f24"/>
<circle cx="77" cy="63.75" r="1.21" fill="#1b1f24"/>
<circle cx="84" cy="63.75" r="0.92" fill="#1b1f24"/>
<circle cx="91" cy="63.75" r="0.61" fill="#1b1f24"/>
<circle cx="3.5" cy="57.69" r="0.5" fill="#1b1f24"/>
<circle cx="10.5" cy="57.69" r="0.84" fill="#1b1f24"/>
<circle cx="17.5" cy="57.69" r="1.18" fill="#1b1f24"/>
<circle cx="24.5" cy="57.69" r="1.49" fill="#1b1f24"/>
<circle cx="31.5" cy="57.69" r="1.78" fill="#1b1f24"/>
<circle cx="38.5" cy="57.69" r="2.01" fill="#1b1f24"/>
<circle cx="45.5" cy="57.69" r="2.15" fill="#1b1f24"/>
<circle cx="52.5" cy="57.69" r="2.17" fill="#1b1f24"/>
<circle cx="59.5" cy="57.69" r="2.06" fill="#1b1f24"/>
<circle cx="66.5" cy="57.69" r="1.85" fill="#1b1f24"/>
<circle cx="73.5" cy="57.69" r="1.58" fill="#1b1f24"/>
<circle cx="80.5" cy="57.69" r="1.27" fill="#1b1f24"/>
<circle cx="87.5" cy="57.69" r="0.94" fill="#1b1f24"/>
<circle cx="94.5" cy="57.69" r="0.6" fill="#1b1f24"/>
<circle cx="7" cy="51.63" r="0.79" fill="#1b1f24"/>
<circle cx="14" cy="51.63" r="1.15" fill="#1b1f24"/>
<circle cx="21" cy="51.63" r="1.5" fill="#1b1f24"/>
<circle cx="28" cy="51.63" r="1.84" fill="#1b1f24"/>
<circle cx="35" cy="51.63" r="2.14" fill="#1b1f24"/>
<circle cx="42" cy="51.63" r="2.39" fill="#1b1f24"/>
<circle cx="49" cy="51.63" r="2.5" fill="#1b1f24"/>
<circle cx="56" cy="51.63" r="2.44" fill="#1b1f24"/>
<circle cx="63" cy="51.63" r="2.22" fill="#1b1f24"/>
<circle cx="70" cy="51.63" r="1.93" fill="#1b1f24"/>
<circle cx="77" cy="51.63" r="1.6" fill="#1b1f24"/>
<circle cx="84" cy="51.63" r="1.25" fill="#1b1f24"/>
<circle cx="91" cy="51.63" r="0.89" fill="#1b1f24"/>
<circle cx="3.5" cy="45.56" r="0.5" fill="#1b1f24"/>
<circle cx="10.5" cy="45.56" r="1.06" fill="#1b1f24"/>
<circle cx="17.5" cy="45.56" r="1.43" fill="#1b1f24"/>
<circle cx="24.5" cy="45.56" r="1.8" fill="#1b1f24"/>
<circle cx="31.5" cy="45.56" r="2.16" fill="#1b1f24"/>
<circle cx="38.5" cy="45.56" r="2.5" fill="#1b1f24"/>
<circle cx="45.5" cy="45.56" r="2.75" fill="#1b1f24"/>
<circle cx="52.5" cy="45.56" r="2.75" fill="#1b1f24"/>
<circle cx="59.5" cy="45.56" r="2.59" fill="#1b1f24"/>
<circle cx="66.5" cy="45.56" r="2.26" fill="#1b1f24"/>
<circle cx="73.5" cy="45.56" r="1.9" fill="#1b1f24"/>
<circle cx="80.5" cy="45.56" r="1.54" fill="#1b1f24"/>
<circle cx="87.5" cy="45.56" r="1.16" fill="#1b1f24"/>
<circle cx="94.5" cy="45.56" r="0.79" fill="#1b1f24"/>
<circle cx="7" cy="39.5" r="0.9" fill="#1b1f24"/>
<circle cx="14" cy="39.5" r="1.28" fill="#1b1f24"/>
<circle cx="21" cy="39.5" r="1.67" fill="#1b1f24"/>
<circle cx="28" cy="39.5" r="2.05" fill="#1b1f24"/>
<circle cx="35" cy="39.5" r="2.43" fill="#1b1f24"/>
<circle cx="42" cy="39.5" r="2.75" fill="#1b1f24"/>
<circle cx="49" cy="39.5" r="2.75" fill="#1b1f24"/>
<circle cx="56" cy="39.5" r="2.75" fill="#1b1f24"/>
<circle cx="63" cy="39.5" r="2.54" fill="#1b1f24"/>
<circle cx="70" cy="39.5" r="2.16" fill="#1b1f24"/>
<circle cx="77" cy="39.5" r="1.77" fill="#1b1f24"/>
<circle cx="84" cy="39.5" r="1.39" fill="#1b1f24"/>
<circle cx="91" cy="39.5" r="1.01" fill="#1b1f24"/>
<circle cx="3.5" cy="33.44" r="0.5" fill="#1b1f24"/>
<circle cx="10.5" cy="33.44" r="1.08" fill="#1b1f24"/>
<circle cx="17.5" cy="33.44" r="1.46" fill="#1b1f24"/>
<circle cx="24.5" cy="33.44" r="1.84" fill="#1b1f24"/>
<circle cx="31.5" cy="33.44" r="2.21" fill="#1b1f24"/>
<circle cx="38.5" cy="33.44" r="2.58" fill="#1b1f24"/>
<circle cx="45.5" cy="33.44" r="2.75" fill="#1b1f24"/>
<circle cx="52.5" cy="33.44" r="2.75" fill="#1b1f24"/>
<circle cx="59.5" cy="33.44" r="2.68" fill="#1b1f24"/>
<circle cx="66.5" cy="33.44" r="2.32" fill="#1b1f24"/>
<circle cx="73.5" cy="33.44" r="1.94" fill="#1b1f24"/>
<circle cx="80.5" cy="33.44" r="1.57" fill="#1b1f24"/>
<circle cx="87.5" cy="33.44" r="1.19" fill="#1b1f24"/>
<circle cx="94.5" cy="33.44" r="0.81" fill="#1b1f24"/>
<circle cx="7" cy="27.38" r="0.83" fill="#1b1f24"/>
<circle cx="14" cy="27.38" r="1.2" fill="#1b1f24"/>
<circle cx="21" cy="27.38" r="1.57" fill="#1b1f24"/>
<circle cx="28" cy="27.38" r="1.92" fill="#1b1f24"/>
<circle cx="35" cy="27.38" r="2.25" fill="#1b1f24"/>
<circle cx="42" cy="27.38" r="2.52" fill="#1b1f24"/>
<circle cx="49" cy="27.38" r="2.67" fill="#1b1f24"/>
<circle cx="56" cy="27.38" r="2.58" fill="#1b1f24"/>
<circle cx="63" cy="27.38" r="2.33" fill="#1b1f24"/>
<circle cx="70" cy="27.38" r="2.01" fill="#1b1f24"/>
<circle cx="77" cy="27.38" r="1.67" fill="#1b1f24"/>
<circle cx="84" cy="27.38" r="1.31" fill="#1b1f24"/>
<circle cx="91" cy="27.38" r="0.94" fill="#1b1f24"/>
<circle cx="3.5" cy="21.32" r="0.5" fill="#1b1f24"/>
<circle cx="10.5" cy="21.32" r="0.91" fill="#1b1f24"/>
<circle cx="17.5" cy="21.32" r="1.26" fill="#1b1f24"/>
<circle cx="24.5" cy="21.32" r="1.59" fill="#1b1f24"/>
<circle cx="31.5" cy="21.32" r="1.89" fill="#1b1f24"/>
<circle cx="38.5" cy="21.32" r="2.14" fill="#1b1f24"/>
<circle cx="45.5" cy="21.32" r="2.31" fill="#1b1f24"/>
<circle cx="52.5" cy="21.32" r="2.33" fill="#1b1f24"/>
<circle cx="59.5" cy="21.32" r="2.2" fill="#1b1f24"/>
<circle cx="66.5" cy="21.32" r="1.97" fill="#1b1f24"/>
<circle cx="73.5" cy="21.32" r="1.68" fill="#1b1f24"/>
<circle cx="80.5" cy="21.32" r="1.35" fill="#1b1f24"/>
<circle cx="87.5" cy="21.32" r="1.01" fill="#1b1f24"/>
<circle cx="94.5" cy="21.32" r="0.66" fill="#1b1f24"/>
<circle cx="7" cy="15.25" r="0.6" fill="#1b1f24"/>
<circle cx="14" cy="15.25" r="0.93" fill="#1b1f24"/>
<circle cx="21" cy="15.25" r="1.24" fill="#1b1f24"/>
<circle cx="28" cy="15.25" r="1.52" fill="#1b1f24"/>
<circle cx="35" cy="15.25" r="1.76" fill="#1b1f24"/>
<circle cx="42" cy="15.25" r="1.93" fill="#1b1f24"/>
<circle cx="49" cy="15.25" r="2.01" fill="#1b1f24"/>
<circle cx="56" cy="15.25" r="1.97" fill="#1b1f24"/>
<circle cx="63" cy="15.25" r="1.82" fill="#1b1f24"/>
<circle cx="70" cy="15.25" r="1.6" fill="#1b1f24"/>
<circle cx="77" cy="15.25" r="1.32" fill="#1b1f24"/>
<circle cx="84" cy="15.25" r="1.02" fill="#1b1f24"/>
<circle cx="91" cy="15.25" r="0.69" fill="#1b1f24"/>
<circle cx="10.5" cy="9.19" r="0.58" fill="#1b1f24"/>
<circle cx="17.5" cy="9.19" r="0.88" fill="#1b1f24"/>
<circle cx="24.5" cy="9.19" r="1.15" fill="#1b1f24"/>
<circle cx="31.5" cy="9.19" r="1.38" fill="#1b1f24"/>
<circle cx="38.5" cy="9.19" r="1.56" fill="#1b1f24"/>
<circle cx="45.5" cy="9.19" r="1.66" fill="#1b1f24"/>
<circle cx="52.5" cy="9.19" r="1.67" fill="#1b1f24"/>
<circle cx="59.5" cy="9.19" r="1.6" fill="#1b1f24"/>
<circle cx="66.5" cy="9.19" r="1.44" fill="#1b1f24"/>
<circle cx="73.5" cy="9.19" r="1.22" fill="#1b1f24"/>
<circle cx="80.5" cy="9.19" r="0.96" fill="#1b1f24"/>
<circle cx="87.5" cy="9.19" r="0.67" fill="#1b1f24"/>
<circle cx="14" cy="3.13" r="0.52" fill="#1b1f24"/>
<circle cx="21" cy="3.13" r="0.78" fill="#1b1f24"/>
<circle cx="28" cy="3.13" r="1" fill="#1b1f24"/>
<circle cx="35" cy="3.13" r="1.18" fill="#1b1f24"/>
<circle cx="42" cy="3.13" r="1.3" fill="#1b1f24"/>
<circle cx="49" cy="3.13" r="1.35" fill="#1b1f24"/>
<circle cx="56" cy="3.13" r="1.32" fill="#1b1f24"/>
<circle cx="63" cy="3.13" r="1.22" fill="#1b1f24"/>
<circle cx="70" cy="3.13" r="1.06" fill="#1b1f24"/>
<circle cx="77" cy="3.13" r="0.84" fill="#1b1f24"/>
<circle cx="84" cy="3.13" r="0.59" fill="#1b1f24"/>
<circle cx="17.5" cy="-2.93" r="0.4" fill="#1b1f24"/>
<circle cx="24.5" cy="-2.93" r="0.62" fill="#1b1f24"/>
<circle cx="31.5" cy="-2.93" r="0.8" fill="#1b1f24"/>
<circle cx="38.5" cy="-2.93" r="0.93" fill="#1b1f24"/>
<circle cx="45.5" cy="-2.93" r="1" fill="#1b1f24"/>
<circle cx="52.5" cy="-2.93" r="1.01" fill="#1b1f24"/>
<circle cx="59.5" cy="-2.93" r="0.96" fill="#1b1f24"/>
<circle cx="66.5" cy="-2.93" r="0.84" fill="#1b1f24"/>
<circle cx="73.5" cy="-2.93" r="0.68" fill="#1b1f24"/>
<circle cx="80.5" cy="-2.93" r="0.47" fill="#1b1f24"/>
<circle cx="50" cy="38" r="2.6" fill="#d9661f" stroke="#fff" stroke-width="0.8"/>
<text x="50" y="100" text-anchor="middle" font-family="system-ui,-apple-system,Segoe UI,sans-serif" font-size="9" fill="#5b636d">Linear</text>
<polygon points="110,88 210,88 210,-12 110,-12" fill="#c9ced4"/>
<circle cx="141.5" cy="81.94" r="0.4" fill="#1b1f24"/>
<circle cx="148.5" cy="81.94" r="0.49" fill="#1b1f24"/>
<circle cx="155.5" cy="81.94" r="0.55" fill="#1b1f24"/>
<circle cx="162.5" cy="81.94" r="0.56" fill="#1b1f24"/>
<circle cx="169.5" cy="81.94" r="0.51" fill="#1b1f24"/>
<circle cx="176.5" cy="81.94" r="0.42" fill="#1b1f24"/>
<circle cx="131" cy="75.88" r="0.39" fill="#1b1f24"/>
<circle cx="138" cy="75.88" r="0.57" fill="#1b1f24"/>
<circle cx="145" cy="75.88" r="0.75" fill="#1b1f24"/>
<circle cx="152" cy="75.88" r="0.88" fill="#1b1f24"/>
<circle cx="159" cy="75.88" r="0.94" fill="#1b1f24"/>
<circle cx="166" cy="75.88" r="0.91" fill="#1b1f24"/>
<circle cx="173" cy="75.88" r="0.79" fill="#1b1f24"/>
<circle cx="180" cy="75.88" r="0.63" fill="#1b1f24"/>
<circle cx="187" cy="75.88" r="0.44" fill="#1b1f24"/>
<circle cx="127.5" cy="69.81" r="0.49" fill="#1b1f24"/>
<circle cx="134.5" cy="69.81" r="0.75" fill="#1b1f24"/>
<circle cx="141.5" cy="69.81" r="1.02" fill="#1b1f24"/>
<circle cx="148.5" cy="69.81" r="1.24" fill="#1b1f24"/>
<circle cx="155.5" cy="69.81" r="1.37" fill="#1b1f24"/>
<circle cx="162.5" cy="69.81" r="1.39" fill="#1b1f24"/>
<circle cx="169.5" cy="69.81" r="1.29" fill="#1b1f24"/>
<circle cx="176.5" cy="69.81" r="1.09" fill="#1b1f24"/>
<circle cx="183.5" cy="69.81" r="0.83" fill="#1b1f24"/>
<circle cx="190.5" cy="69.81" r="0.56" fill="#1b1f24"/>
<circle cx="124" cy="63.75" r="0.55" fill="#1b1f24"/>
<circle cx="131" cy="63.75" r="0.88" fill="#1b1f24"/>
<circle cx="138" cy="63.75" r="1.24" fill="#1b1f24"/>
<circle cx="145" cy="63.75" r="1.56" fill="#1b1f24"/>
<circle cx="152" cy="63.75" r="1.79" fill="#1b1f24"/>
<circle cx="159" cy="63.75" r="1.89" fill="#1b1f24"/>
<circle cx="166" cy="63.75" r="1.84" fill="#1b1f24"/>
<circle cx="173" cy="63.75" r="1.64" fill="#1b1f24"/>
<circle cx="180" cy="63.75" r="1.34" fill="#1b1f24"/>
<circle cx="187" cy="63.75" r="0.98" fill="#1b1f24"/>
<circle cx="194" cy="63.75" r="0.64" fill="#1b1f24"/>
<circle cx="120.5" cy="57.69" r="0.55" fill="#1b1f24"/>
<circle cx="127.5" cy="57.69" r="0.93" fill="#1b1f24"/>
<circle cx="134.5" cy="57.69" r="1.37" fill="#1b1f24"/>
<circle cx="141.5" cy="57.69" r="1.79" fill="#1b1f24"/>
<circle cx="148.5" cy="57.69" r="2.13" fill="#1b1f24"/>
<circle cx="155.5" cy="57.69" r="2.33" fill="#1b1f24"/>
<circle cx="162.5" cy="57.69" r="2.36" fill="#1b1f24"/>
<circle cx="169.5" cy="57.69" r="2.2" fill="#1b1f24"/>
<circle cx="176.5" cy="57.69" r="1.9" fill="#1b1f24"/>
<circle cx="183.5" cy="57.69" r="1.49" fill="#1b1f24"/>
<circle cx="190.5" cy="57.69" r="1.05" fill="#1b1f24"/>
<circle cx="197.5" cy="57.69" r="0.65" fill="#1b1f24"/>
<circle cx="117" cy="51.63" r="0.51" fill="#1b1f24"/>
<circle cx="124" cy="51.63" r="0.9" fill="#1b1f24"/>
<circle cx="131" cy="51.63" r="1.38" fill="#1b1f24"/>
<circle cx="138" cy="51.63" r="1.88" fill="#1b1f24"/>
<circle cx="145" cy="51.63" r="2.33" fill="#1b1f24"/>
<circle cx="152" cy="51.63" r="2.65" fill="#1b1f24"/>
<circle cx="159" cy="51.63" r="2.75" fill="#1b1f24"/>
<circle cx="166" cy="51.63" r="2.71" fill="#1b1f24"/>
<circle cx="173" cy="51.63" r="2.44" fill="#1b1f24"/>
<circle cx="180" cy="51.63" r="2.02" fill="#1b1f24"/>
<circle cx="187" cy="51.63" r="1.53" fill="#1b1f24"/>
<circle cx="194" cy="51.63" r="1.03" fill="#1b1f24"/>
<circle cx="201" cy="51.63" r="0.6" fill="#1b1f24"/>
<circle cx="113.5" cy="45.56" r="0.42" fill="#1b1f24"/>
<circle cx="120.5" cy="45.56" r="0.78" fill="#1b1f24"/>
<circle cx="127.5" cy="45.56" r="1.28" fill="#1b1f24"/>
<circle cx="134.5" cy="45.56" r="1.82" fill="#1b1f24"/>
<circle cx="141.5" cy="45.56" r="2.35" fill="#1b1f24"/>
<circle cx="148.5" cy="45.56" r="2.75" fill="#1b1f24"/>
<circle cx="155.5" cy="45.56" r="2.75" fill="#1b1f24"/>
<circle cx="162.5" cy="45.56" r="2.75" fill="#1b1f24"/>
<circle cx="169.5" cy="45.56" r="2.75" fill="#1b1f24"/>
<circle cx="176.5" cy="45.56" r="2.49" fill="#1b1f24"/>
<circle cx="183.5" cy="45.56" r="1.98" fill="#1b1f24"/>
<circle cx="190.5" cy="45.56" r="1.43" fill="#1b1f24"/>
<circle cx="197.5" cy="45.56" r="0.91" fill="#1b1f24"/>
<circle cx="204.5" cy="45.56" r="0.5" fill="#1b1f24"/>
<circle cx="117" cy="39.5" r="0.61" fill="#1b1f24"/>
<circle cx="124" cy="39.5" r="1.07" fill="#1b1f24"/>
<circle cx="131" cy="39.5" r="1.62" fill="#1b1f24"/>
<circle cx="138" cy="39.5" r="2.19" fill="#1b1f24"/>
<circle cx="145" cy="39.5" r="2.7" fill="#1b1f24"/>
<circle cx="152" cy="39.5" r="2.75" fill="#1b1f24"/>
<circle cx="159" cy="39.5" r="2.75" fill="#1b1f24"/>
<circle cx="166" cy="39.5" r="2.75" fill="#1b1f24"/>
<circle cx="173" cy="39.5" r="2.75" fill="#1b1f24"/>
<circle cx="180" cy="39.5" r="2.34" fill="#1b1f24"/>
<circle cx="187" cy="39.5" r="1.79" fill="#1b1f24"/>
<circle cx="194" cy="39.5" r="1.23" fill="#1b1f24"/>
<circle cx="201" cy="39.5" r="0.73" fill="#1b1f24"/>
<circle cx="113.5" cy="33.44" r="0.43" fill="#1b1f24"/>
<circle cx="120.5" cy="33.44" r="0.81" fill="#1b1f24"/>
<circle cx="127.5" cy="33.44" r="1.32" fill="#1b1f24"/>
<circle cx="134.5" cy="33.44" r="1.88" fill="#1b1f24"/>
<circle cx="141.5" cy="33.44" r="2.42" fill="#1b1f24"/>
<circle cx="148.5" cy="33.44" r="2.75" fill="#1b1f24"/>
<circle cx="155.5" cy="33.44" r="2.75" fill="#1b1f24"/>
<circle cx="162.5" cy="33.44" r="2.75" fill="#1b1f24"/>
<circle cx="169.5" cy="33.44" r="2.75" fill="#1b1f24"/>
<circle cx="176.5" cy="33.44" r="2.56" fill="#1b1f24"/>
<circle cx="183.5" cy="33.44" r="2.04" fill="#1b1f24"/>
<circle cx="190.5" cy="33.44" r="1.48" fill="#1b1f24"/>
<circle cx="197.5" cy="33.44" r="0.95" fill="#1b1f24"/>
<circle cx="204.5" cy="33.44" r="0.52" fill="#1b1f24"/>
<circle cx="117" cy="27.38" r="0.55" fill="#1b1f24"/>
<circle cx="124" cy="27.38" r="0.97" fill="#1b1f24"/>
<circle cx="131" cy="27.38" r="1.47" fill="#1b1f24"/>
<circle cx="138" cy="27.38" r="2" fill="#1b1f24"/>
<circle cx="145" cy="27.38" r="2.47" fill="#1b1f24"/>
<circle cx="152" cy="27.38" r="2.75" fill="#1b1f24"/>
<circle cx="159" cy="27.38" r="2.75" fill="#1b1f24"/>
<circle cx="166" cy="27.38" r="2.75" fill="#1b1f24"/>
<circle cx="173" cy="27.38" r="2.58" fill="#1b1f24"/>
<circle cx="180" cy="27.38" r="2.14" fill="#1b1f24"/>
<circle cx="187" cy="27.38" r="1.63" fill="#1b1f24"/>
<circle cx="194" cy="27.38" r="1.1" fill="#1b1f24"/>
<circle cx="201" cy="27.38" r="0.65" fill="#1b1f24"/>
<circle cx="120.5" cy="21.32" r="0.62" fill="#1b1f24"/>
<circle cx="127.5" cy="21.32" r="1.04" fill="#1b1f24"/>
<circle cx="134.5" cy="21.32" r="1.51" fill="#1b1f24"/>
<circle cx="141.5" cy="21.32" r="1.96" fill="#1b1f24"/>
<circle cx="148.5" cy="21.32" r="2.33" fill="#1b1f24"/>
<circle cx="155.5" cy="21.32" r="2.55" fill="#1b1f24"/>
<circle cx="162.5" cy="21.32" r="2.58" fill="#1b1f24"/>
<circle cx="169.5" cy="21.32" r="2.41" fill="#1b1f24"/>
<circle cx="176.5" cy="21.32" r="2.08" fill="#1b1f24"/>
<circle cx="183.5" cy="21.32" r="1.64" fill="#1b1f24"/>
<circle cx="190.5" cy="21.32" r="1.17" fill="#1b1f24"/>
<circle cx="197.5" cy="21.32" r="0.73" fill="#1b1f24"/>
<circle cx="204.5" cy="21.32" r="0.4" fill="#1b1f24"/>
<circle cx="124" cy="15.25" r="0.64" fill="#1b1f24"/>
<circle cx="131" cy="15.25" r="1.01" fill="#1b1f24"/>
<circle cx="138" cy="15.25" r="1.41" fill="#1b1f24"/>
<circle cx="145" cy="15.25" r="1.77" fill="#1b1f24"/>
<circle cx="152" cy="15.25" r="2.03" fill="#1b1f24"/>
<circle cx="159" cy="15.25" r="2.13" fill="#1b1f24"/>
<circle cx="166" cy="15.25" r="2.07" fill="#1b1f24"/>
<circle cx="173" cy="15.25" r="1.86" fill="#1b1f24"/>
<circle cx="180" cy="15.25" r="1.52" fill="#1b1f24"/>
<circle cx="187" cy="15.25" r="1.13" fill="#1b1f24"/>
<circle cx="194" cy="15.25" r="0.74" fill="#1b1f24"/>
<circle cx="201" cy="15.25" r="0.43" fill="#1b1f24"/>
<circle cx="127.5" cy="9.19" r="0.59" fill="#1b1f24"/>
<circle cx="134.5" cy="9.19" r="0.9" fill="#1b1f24"/>
<circle cx="141.5" cy="9.19" r="1.21" fill="#1b1f24"/>
<circle cx="148.5" cy="9.19" r="1.46" fill="#1b1f24"/>
<circle cx="155.5" cy="9.19" r="1.61" fill="#1b1f24"/>
<circle cx="162.5" cy="9.19" r="1.63" fill="#1b1f24"/>
<circle cx="169.5" cy="9.19" r="1.52" fill="#1b1f24"/>
<circle cx="176.5" cy="9.19" r="1.29" fill="#1b1f24"/>
<circle cx="183.5" cy="9.19" r="0.99" fill="#1b1f24"/>
<circle cx="190.5" cy="9.19" r="0.68" fill="#1b1f24"/>
<circle cx="197.5" cy="9.19" r="0.41" fill="#1b1f24"/>
<circle cx="131" cy="3.13" r="0.49" fill="#1b1f24"/>
<circle cx="138" cy="3.13" r="0.72" fill="#1b1f24"/>
<circle cx="145" cy="3.13" r="0.94" fill="#1b1f24"/>
<circle cx="152" cy="3.13" r="1.09" fill="#1b1f24"/>
<circle cx="159" cy="3.13" r="1.16" fill="#1b1f24"/>
<circle cx="166" cy="3.13" r="1.12" fill="#1b1f24"/>
<circle cx="173" cy="3.13" r="0.99" fill="#1b1f24"/>
<circle cx="180" cy="3.13" r="0.78" fill="#1b1f24"/>
<circle cx="187" cy="3.13" r="0.56" fill="#1b1f24"/>
<circle cx="134.5" cy="-2.93" r="0.38" fill="#1b1f24"/>
<circle cx="141.5" cy="-2.93" r="0.52" fill="#1b1f24"/>
<circle cx="148.5" cy="-2.93" r="0.64" fill="#1b1f24"/>
<circle cx="155.5" cy="-2.93" r="0.72" fill="#1b1f24"/>
<circle cx="162.5" cy="-2.93" r="0.73" fill="#1b1f24"/>
<circle cx="169.5" cy="-2.93" r="0.67" fill="#1b1f24"/>
<circle cx="176.5" cy="-2.93" r="0.56" fill="#1b1f24"/>
<circle cx="183.5" cy="-2.93" r="0.41" fill="#1b1f24"/>
<circle cx="160" cy="38" r="2.6" fill="#d9661f" stroke="#fff" stroke-width="0.8"/>
<text x="160" y="100" text-anchor="middle" font-family="system-ui,-apple-system,Segoe UI,sans-serif" font-size="9" fill="#5b636d">Smoothstep</text>
<polygon points="220,88 320,88 320,-12 220,-12" fill="#c9ced4"/>
<circle cx="265.5" cy="81.94" r="0.38" fill="#1b1f24"/>
<circle cx="272.5" cy="81.94" r="0.39" fill="#1b1f24"/>
<circle cx="248" cy="75.88" r="0.39" fill="#1b1f24"/>
<circle cx="255" cy="75.88" r="0.47" fill="#1b1f24"/>
<circle cx="262" cy="75.88" r="0.54" fill="#1b1f24"/>
<circle cx="269" cy="75.88" r="0.57" fill="#1b1f24"/>
<circle cx="276" cy="75.88" r="0.56" fill="#1b1f24"/>
<circle cx="283" cy="75.88" r="0.5" fill="#1b1f24"/>
<circle cx="290" cy="75.88" r="0.41" fill="#1b1f24"/>
<circle cx="244.5" cy="69.81" r="0.47" fill="#1b1f24"/>
<circle cx="251.5" cy="69.81" r="0.62" fill="#1b1f24"/>
<circle cx="258.5" cy="69.81" r="0.77" fill="#1b1f24"/>
<circle cx="265.5" cy="69.81" r="0.87" fill="#1b1f24"/>
<circle cx="272.5" cy="69.81" r="0.88" fill="#1b1f24"/>
<circle cx="279.5" cy="69.81" r="0.8" fill="#1b1f24"/>
<circle cx="286.5" cy="69.81" r="0.67" fill="#1b1f24"/>
<circle cx="293.5" cy="69.81" r="0.51" fill="#1b1f24"/>
<circle cx="300.5" cy="69.81" r="0.38" fill="#1b1f24"/>
<circle cx="234" cy="63.75" r="0.38" fill="#1b1f24"/>
<circle cx="241" cy="63.75" r="0.54" fill="#1b1f24"/>
<circle cx="248" cy="63.75" r="0.77" fill="#1b1f24"/>
<circle cx="255" cy="63.75" r="1.03" fill="#1b1f24"/>
<circle cx="262" cy="63.75" r="1.24" fill="#1b1f24"/>
<circle cx="269" cy="63.75" r="1.35" fill="#1b1f24"/>
<circle cx="276" cy="63.75" r="1.29" fill="#1b1f24"/>
<circle cx="283" cy="63.75" r="1.1" fill="#1b1f24"/>
<circle cx="290" cy="63.75" r="0.84" fill="#1b1f24"/>
<circle cx="297" cy="63.75" r="0.6" fill="#1b1f24"/>
<circle cx="304" cy="63.75" r="0.42" fill="#1b1f24"/>
<circle cx="230.5" cy="57.69" r="0.38" fill="#1b1f24"/>
<circle cx="237.5" cy="57.69" r="0.57" fill="#1b1f24"/>
<circle cx="244.5" cy="57.69" r="0.86" fill="#1b1f24"/>
<circle cx="251.5" cy="57.69" r="1.24" fill="#1b1f24"/>
<circle cx="258.5" cy="57.69" r="1.62" fill="#1b1f24"/>
<circle cx="265.5" cy="57.69" r="1.87" fill="#1b1f24"/>
<circle cx="272.5" cy="57.69" r="1.9" fill="#1b1f24"/>
<circle cx="279.5" cy="57.69" r="1.71" fill="#1b1f24"/>
<circle cx="286.5" cy="57.69" r="1.35" fill="#1b1f24"/>
<circle cx="293.5" cy="57.69" r="0.97" fill="#1b1f24"/>
<circle cx="300.5" cy="57.69" r="0.64" fill="#1b1f24"/>
<circle cx="307.5" cy="57.69" r="0.43" fill="#1b1f24"/>
<circle cx="234" cy="51.63" r="0.55" fill="#1b1f24"/>
<circle cx="241" cy="51.63" r="0.87" fill="#1b1f24"/>
<circle cx="248" cy="51.63" r="1.34" fill="#1b1f24"/>
<circle cx="255" cy="51.63" r="1.86" fill="#1b1f24"/>
<circle cx="262" cy="51.63" r="2.31" fill="#1b1f24"/>
<circle cx="269" cy="51.63" r="2.51" fill="#1b1f24"/>
<circle cx="276" cy="51.63" r="2.4" fill="#1b1f24"/>
<circle cx="283" cy="51.63" r="2.01" fill="#1b1f24"/>
<circle cx="290" cy="51.63" r="1.49" fill="#1b1f24"/>
<circle cx="297" cy="51.63" r="0.99" fill="#1b1f24"/>
<circle cx="304" cy="51.63" r="0.63" fill="#1b1f24"/>
<circle cx="311" cy="51.63" r="0.41" fill="#1b1f24"/>
<circle cx="230.5" cy="45.56" r="0.49" fill="#1b1f24"/>
<circle cx="237.5" cy="45.56" r="0.8" fill="#1b1f24"/>
<circle cx="244.5" cy="45.56" r="1.28" fill="#1b1f24"/>
<circle cx="251.5" cy="45.56" r="1.89" fill="#1b1f24"/>
<circle cx="258.5" cy="45.56" r="2.5" fill="#1b1f24"/>
<circle cx="265.5" cy="45.56" r="2.75" fill="#1b1f24"/>
<circle cx="272.5" cy="45.56" r="2.75" fill="#1b1f24"/>
<circle cx="279.5" cy="45.56" r="2.65" fill="#1b1f24"/>
<circle cx="286.5" cy="45.56" r="2.07" fill="#1b1f24"/>
<circle cx="293.5" cy="45.56" r="1.44" fill="#1b1f24"/>
<circle cx="300.5" cy="45.56" r="0.91" fill="#1b1f24"/>
<circle cx="307.5" cy="45.56" r="0.56" fill="#1b1f24"/>
<circle cx="227" cy="39.5" r="0.41" fill="#1b1f24"/>
<circle cx="234" cy="39.5" r="0.66" fill="#1b1f24"/>
<circle cx="241" cy="39.5" r="1.08" fill="#1b1f24"/>
<circle cx="248" cy="39.5" r="1.69" fill="#1b1f24"/>
<circle cx="255" cy="39.5" r="2.38" fill="#1b1f24"/>
<circle cx="262" cy="39.5" r="2.75" fill="#1b1f24"/>
<circle cx="269" cy="39.5" r="2.75" fill="#1b1f24"/>
<circle cx="276" cy="39.5" r="2.75" fill="#1b1f24"/>
<circle cx="283" cy="39.5" r="2.57" fill="#1b1f24"/>
<circle cx="290" cy="39.5" r="1.88" fill="#1b1f24"/>
<circle cx="297" cy="39.5" r="1.24" fill="#1b1f24"/>
<circle cx="304" cy="39.5" r="0.76" fill="#1b1f24"/>
<circle cx="311" cy="39.5" r="0.46" fill="#1b1f24"/>
<circle cx="230.5" cy="33.44" r="0.51" fill="#1b1f24"/>
<circle cx="237.5" cy="33.44" r="0.83" fill="#1b1f24"/>
<circle cx="244.5" cy="33.44" r="1.33" fill="#1b1f24"/>
<circle cx="251.5" cy="33.44" r="1.98" fill="#1b1f24"/>
<circle cx="258.5" cy="33.44" r="2.63" fill="#1b1f24"/>
<circle cx="265.5" cy="33.44" r="2.75" fill="#1b1f24"/>
<circle cx="272.5" cy="33.44" r="2.75" fill="#1b1f24"/>
<circle cx="279.5" cy="33.44" r="2.75" fill="#1b1f24"/>
<circle cx="286.5" cy="33.44" r="2.18" fill="#1b1f24"/>
<circle cx="293.5" cy="33.44" r="1.51" fill="#1b1f24"/>
<circle cx="300.5" cy="33.44" r="0.95" fill="#1b1f24"/>
<circle cx="307.5" cy="33.44" r="0.58" fill="#1b1f24"/>
<circle cx="227" cy="27.38" r="0.38" fill="#1b1f24"/>
<circle cx="234" cy="27.38" r="0.59" fill="#1b1f24"/>
<circle cx="241" cy="27.38" r="0.95" fill="#1b1f24"/>
<circle cx="248" cy="27.38" r="1.46" fill="#1b1f24"/>
<circle cx="255" cy="27.38" r="2.05" fill="#1b1f24"/>
<circle cx="262" cy="27.38" r="2.55" fill="#1b1f24"/>
<circle cx="269" cy="27.38" r="2.75" fill="#1b1f24"/>
<circle cx="276" cy="27.38" r="2.65" fill="#1b1f24"/>
<circle cx="283" cy="27.38" r="2.21" fill="#1b1f24"/>
<circle cx="290" cy="27.38" r="1.63" fill="#1b1f24"/>
<circle cx="297" cy="27.38" r="1.08" fill="#1b1f24"/>
<circle cx="304" cy="27.38" r="0.68" fill="#1b1f24"/>
<circle cx="311" cy="27.38" r="0.43" fill="#1b1f24"/>
<circle cx="230.5" cy="21.32" r="0.41" fill="#1b1f24"/>
<circle cx="237.5" cy="21.32" r="0.63" fill="#1b1f24"/>
<circle cx="244.5" cy="21.32" r="0.98" fill="#1b1f24"/>
<circle cx="251.5" cy="21.32" r="1.42" fill="#1b1f24"/>
<circle cx="258.5" cy="21.32" r="1.86" fill="#1b1f24"/>
<circle cx="265.5" cy="21.32" r="2.16" fill="#1b1f24"/>
<circle cx="272.5" cy="21.32" r="2.2" fill="#1b1f24"/>
<circle cx="279.5" cy="21.32" r="1.97" fill="#1b1f24"/>
<circle cx="286.5" cy="21.32" r="1.55" fill="#1b1f24"/>
<circle cx="293.5" cy="21.32" r="1.1" fill="#1b1f24"/>
<circle cx="300.5" cy="21.32" r="0.72" fill="#1b1f24"/>
<circle cx="307.5" cy="21.32" r="0.46" fill="#1b1f24"/>
<circle cx="234" cy="15.25" r="0.42" fill="#1b1f24"/>
<circle cx="241" cy="15.25" r="0.62" fill="#1b1f24"/>
<circle cx="248" cy="15.25" r="0.9" fill="#1b1f24"/>
<circle cx="255" cy="15.25" r="1.22" fill="#1b1f24"/>
<circle cx="262" cy="15.25" r="1.49" fill="#1b1f24"/>
<circle cx="269" cy="15.25" r="1.62" fill="#1b1f24"/>
<circle cx="276" cy="15.25" r="1.55" fill="#1b1f24"/>
<circle cx="283" cy="15.25" r="1.31" fill="#1b1f24"/>
<circle cx="290" cy="15.25" r="0.99" fill="#1b1f24"/>
<circle cx="297" cy="15.25" r="0.69" fill="#1b1f24"/>
<circle cx="304" cy="15.25" r="0.47" fill="#1b1f24"/>
<circle cx="237.5" cy="9.19" r="0.4" fill="#1b1f24"/>
<circle cx="244.5" cy="9.19" r="0.55" fill="#1b1f24"/>
<circle cx="251.5" cy="9.19" r="0.75" fill="#1b1f24"/>
<circle cx="258.5" cy="9.19" r="0.94" fill="#1b1f24"/>
<circle cx="265.5" cy="9.19" r="1.07" fill="#1b1f24"/>
<circle cx="272.5" cy="9.19" r="1.09" fill="#1b1f24"/>
<circle cx="279.5" cy="9.19" r="0.99" fill="#1b1f24"/>
<circle cx="286.5" cy="9.19" r="0.81" fill="#1b1f24"/>
<circle cx="293.5" cy="9.19" r="0.6" fill="#1b1f24"/>
<circle cx="300.5" cy="9.19" r="0.44" fill="#1b1f24"/>
<circle cx="248" cy="3.13" r="0.46" fill="#1b1f24"/>
<circle cx="255" cy="3.13" r="0.57" fill="#1b1f24"/>
<circle cx="262" cy="3.13" r="0.67" fill="#1b1f24"/>
<circle cx="269" cy="3.13" r="0.71" fill="#1b1f24"/>
<circle cx="276" cy="3.13" r="0.69" fill="#1b1f24"/>
<circle cx="283" cy="3.13" r="0.6" fill="#1b1f24"/>
<circle cx="290" cy="3.13" r="0.49" fill="#1b1f24"/>
<circle cx="297" cy="3.13" r="0.38" fill="#1b1f24"/>
<circle cx="258.5" cy="-2.93" r="0.42" fill="#1b1f24"/>
<circle cx="265.5" cy="-2.93" r="0.46" fill="#1b1f24"/>
<circle cx="272.5" cy="-2.93" r="0.46" fill="#1b1f24"/>
<circle cx="279.5" cy="-2.93" r="0.44" fill="#1b1f24"/>
<circle cx="286.5" cy="-2.93" r="0.38" fill="#1b1f24"/>
<circle cx="270" cy="38" r="2.6" fill="#d9661f" stroke="#fff" stroke-width="0.8"/>
<text x="270" y="100" text-anchor="middle" font-family="system-ui,-apple-system,Segoe UI,sans-serif" font-size="9" fill="#5b636d">Gaussian</text>
<polygon points="330,88 430,88 430,-12 330,-12" fill="#c9ced4"/>
<circle cx="365" cy="75.88" r="0.39" fill="#1b1f24"/>
<circle cx="372" cy="75.88" r="0.42" fill="#1b1f24"/>
<circle cx="379" cy="75.88" r="0.43" fill="#1b1f24"/>
<circle cx="386" cy="75.88" r="0.43" fill="#1b1f24"/>
<circle cx="393" cy="75.88" r="0.4" fill="#1b1f24"/>
<circle cx="354.5" cy="69.81" r="0.39" fill="#1b1f24"/>
<circle cx="361.5" cy="69.81" r="0.45" fill="#1b1f24"/>
<circle cx="368.5" cy="69.81" r="0.51" fill="#1b1f24"/>
<circle cx="375.5" cy="69.81" r="0.56" fill="#1b1f24"/>
<circle cx="382.5" cy="69.81" r="0.56" fill="#1b1f24"/>
<circle cx="389.5" cy="69.81" r="0.53" fill="#1b1f24"/>
<circle cx="396.5" cy="69.81" r="0.47" fill="#1b1f24"/>
<circle cx="403.5" cy="69.81" r="0.41" fill="#1b1f24"/>
<circle cx="351" cy="63.75" r="0.42" fill="#1b1f24"/>
<circle cx="358" cy="63.75" r="0.51" fill="#1b1f24"/>
<circle cx="365" cy="63.75" r="0.62" fill="#1b1f24"/>
<circle cx="372" cy="63.75" r="0.72" fill="#1b1f24"/>
<circle cx="379" cy="63.75" r="0.77" fill="#1b1f24"/>
<circle cx="386" cy="63.75" r="0.74" fill="#1b1f24"/>
<circle cx="393" cy="63.75" r="0.65" fill="#1b1f24"/>
<circle cx="400" cy="63.75" r="0.54" fill="#1b1f24"/>
<circle cx="407" cy="63.75" r="0.44" fill="#1b1f24"/>
<circle cx="347.5" cy="57.69" r="0.43" fill="#1b1f24"/>
<circle cx="354.5" cy="57.69" r="0.55" fill="#1b1f24"/>
<circle cx="361.5" cy="57.69" r="0.72" fill="#1b1f24"/>
<circle cx="368.5" cy="57.69" r="0.91" fill="#1b1f24"/>
<circle cx="375.5" cy="57.69" r="1.07" fill="#1b1f24"/>
<circle cx="382.5" cy="57.69" r="1.1" fill="#1b1f24"/>
<circle cx="389.5" cy="57.69" r="0.97" fill="#1b1f24"/>
<circle cx="396.5" cy="57.69" r="0.77" fill="#1b1f24"/>
<circle cx="403.5" cy="57.69" r="0.6" fill="#1b1f24"/>
<circle cx="410.5" cy="57.69" r="0.46" fill="#1b1f24"/>
<circle cx="344" cy="51.63" r="0.42" fill="#1b1f24"/>
<circle cx="351" cy="51.63" r="0.56" fill="#1b1f24"/>
<circle cx="358" cy="51.63" r="0.76" fill="#1b1f24"/>
<circle cx="365" cy="51.63" r="1.07" fill="#1b1f24"/>
<circle cx="372" cy="51.63" r="1.44" fill="#1b1f24"/>
<circle cx="379" cy="51.63" r="1.67" fill="#1b1f24"/>
<circle cx="386" cy="51.63" r="1.53" fill="#1b1f24"/>
<circle cx="393" cy="51.63" r="1.17" fill="#1b1f24"/>
<circle cx="400" cy="51.63" r="0.84" fill="#1b1f24"/>
<circle cx="407" cy="51.63" r="0.61" fill="#1b1f24"/>
<circle cx="414" cy="51.63" r="0.46" fill="#1b1f24"/>
<circle cx="340.5" cy="45.56" r="0.4" fill="#1b1f24"/>
<circle cx="347.5" cy="45.56" r="0.53" fill="#1b1f24"/>
<circle cx="354.5" cy="45.56" r="0.73" fill="#1b1f24"/>
<circle cx="361.5" cy="45.56" r="1.09" fill="#1b1f24"/>
<circle cx="368.5" cy="45.56" r="1.65" fill="#1b1f24"/>
<circle cx="375.5" cy="45.56" r="2.32" fill="#1b1f24"/>
<circle cx="382.5" cy="45.56" r="2.45" fill="#1b1f24"/>
<circle cx="389.5" cy="45.56" r="1.85" fill="#1b1f24"/>
<circle cx="396.5" cy="45.56" r="1.22" fill="#1b1f24"/>
<circle cx="403.5" cy="45.56" r="0.82" fill="#1b1f24"/>
<circle cx="410.5" cy="45.56" r="0.57" fill="#1b1f24"/>
<circle cx="417.5" cy="45.56" r="0.43" fill="#1b1f24"/>
<circle cx="344" cy="39.5" r="0.47" fill="#1b1f24"/>
<circle cx="351" cy="39.5" r="0.65" fill="#1b1f24"/>
<circle cx="358" cy="39.5" r="0.95" fill="#1b1f24"/>
<circle cx="365" cy="39.5" r="1.51" fill="#1b1f24"/>
<circle cx="372" cy="39.5" r="2.42" fill="#1b1f24"/>
<circle cx="379" cy="39.5" r="2.75" fill="#1b1f24"/>
<circle cx="386" cy="39.5" r="2.71" fill="#1b1f24"/>
<circle cx="393" cy="39.5" r="1.74" fill="#1b1f24"/>
<circle cx="400" cy="39.5" r="1.08" fill="#1b1f24"/>
<circle cx="407" cy="39.5" r="0.72" fill="#1b1f24"/>
<circle cx="414" cy="39.5" r="0.51" fill="#1b1f24"/>
<circle cx="421" cy="39.5" r="0.38" fill="#1b1f24"/>
<circle cx="340.5" cy="33.44" r="0.4" fill="#1b1f24"/>
<circle cx="347.5" cy="33.44" r="0.54" fill="#1b1f24"/>
<circle cx="354.5" cy="33.44" r="0.76" fill="#1b1f24"/>
<circle cx="361.5" cy="33.44" r="1.15" fill="#1b1f24"/>
<circle cx="368.5" cy="33.44" r="1.82" fill="#1b1f24"/>
<circle cx="375.5" cy="33.44" r="2.68" fill="#1b1f24"/>
<circle cx="382.5" cy="33.44" r="2.75" fill="#1b1f24"/>
<circle cx="389.5" cy="33.44" r="2.07" fill="#1b1f24"/>
<circle cx="396.5" cy="33.44" r="1.31" fill="#1b1f24"/>
<circle cx="403.5" cy="33.44" r="0.85" fill="#1b1f24"/>
<circle cx="410.5" cy="33.44" r="0.59" fill="#1b1f24"/>
<circle cx="417.5" cy="33.44" r="0.44" fill="#1b1f24"/>
<circle cx="344" cy="27.38" r="0.44" fill="#1b1f24"/>
<circle cx="351" cy="27.38" r="0.59" fill="#1b1f24"/>
<circle cx="358" cy="27.38" r="0.83" fill="#1b1f24"/>
<circle cx="365" cy="27.38" r="1.21" fill="#1b1f24"/>
<circle cx="372" cy="27.38" r="1.71" fill="#1b1f24"/>
<circle cx="379" cy="27.38" r="2.05" fill="#1b1f24"/>
<circle cx="386" cy="27.38" r="1.85" fill="#1b1f24"/>
<circle cx="393" cy="27.38" r="1.34" fill="#1b1f24"/>
<circle cx="400" cy="27.38" r="0.92" fill="#1b1f24"/>
<circle cx="407" cy="27.38" r="0.65" fill="#1b1f24"/>
<circle cx="414" cy="27.38" r="0.48" fill="#1b1f24"/>
<circle cx="347.5" cy="21.32" r="0.46" fill="#1b1f24"/>
<circle cx="354.5" cy="21.32" r="0.6" fill="#1b1f24"/>
<circle cx="361.5" cy="21.32" r="0.81" fill="#1b1f24"/>
<circle cx="368.5" cy="21.32" r="1.07" fill="#1b1f24"/>
<circle cx="375.5" cy="21.32" r="1.3" fill="#1b1f24"/>
<circle cx="382.5" cy="21.32" r="1.33" fill="#1b1f24"/>
<circle cx="389.5" cy="21.32" r="1.14" fill="#1b1f24"/>
<circle cx="396.5" cy="21.32" r="0.88" fill="#1b1f24"/>
<circle cx="403.5" cy="21.32" r="0.65" fill="#1b1f24"/>
<circle cx="410.5" cy="21.32" r="0.49" fill="#1b1f24"/>
<circle cx="417.5" cy="21.32" r="0.38" fill="#1b1f24"/>
<circle cx="351" cy="15.25" r="0.45" fill="#1b1f24"/>
<circle cx="358" cy="15.25" r="0.57" fill="#1b1f24"/>
<circle cx="365" cy="15.25" r="0.71" fill="#1b1f24"/>
<circle cx="372" cy="15.25" r="0.84" fill="#1b1f24"/>
<circle cx="379" cy="15.25" r="0.91" fill="#1b1f24"/>
<circle cx="386" cy="15.25" r="0.87" fill="#1b1f24"/>
<circle cx="393" cy="15.25" r="0.75" fill="#1b1f24"/>
<circle cx="400" cy="15.25" r="0.61" fill="#1b1f24"/>
<circle cx="407" cy="15.25" r="0.48" fill="#1b1f24"/>
<circle cx="414" cy="15.25" r="0.39" fill="#1b1f24"/>
<circle cx="354.5" cy="9.19" r="0.42" fill="#1b1f24"/>
<circle cx="361.5" cy="9.19" r="0.51" fill="#1b1f24"/>
<circle cx="368.5" cy="9.19" r="0.59" fill="#1b1f24"/>
<circle cx="375.5" cy="9.19" r="0.64" fill="#1b1f24"/>
<circle cx="382.5" cy="9.19" r="0.65" fill="#1b1f24"/>
<circle cx="389.5" cy="9.19" r="0.61" fill="#1b1f24"/>
<circle cx="396.5" cy="9.19" r="0.53" fill="#1b1f24"/>
<circle cx="403.5" cy="9.19" r="0.45" fill="#1b1f24"/>
<circle cx="358" cy="3.13" r="0.38" fill="#1b1f24"/>
<circle cx="365" cy="3.13" r="0.43" fill="#1b1f24"/>
<circle cx="372" cy="3.13" r="0.47" fill="#1b1f24"/>
<circle cx="379" cy="3.13" r="0.49" fill="#1b1f24"/>
<circle cx="386" cy="3.13" r="0.48" fill="#1b1f24"/>
<circle cx="393" cy="3.13" r="0.45" fill="#1b1f24"/>
<circle cx="400" cy="3.13" r="0.4" fill="#1b1f24"/>
<circle cx="375.5" cy="-2.93" r="0.38" fill="#1b1f24"/>
<circle cx="382.5" cy="-2.93" r="0.38" fill="#1b1f24"/>
<circle cx="380" cy="38" r="2.6" fill="#d9661f" stroke="#fff" stroke-width="0.8"/>
<text x="380" y="100" text-anchor="middle" font-family="system-ui,-apple-system,Segoe UI,sans-serif" font-size="9" fill="#5b636d">Inverse square</text>
<polygon points="440,88 540,88 540,-12 440,-12" fill="#c9ced4"/>
<circle cx="457.5" cy="81.94" r="1" fill="#1b1f24"/>
<circle cx="464.5" cy="81.94" r="1" fill="#1b1f24"/>
<circle cx="471.5" cy="81.94" r="1" fill="#1b1f24"/>
<circle cx="478.5" cy="81.94" r="1" fill="#1b1f24"/>
<circle cx="485.5" cy="81.94" r="1" fill="#1b1f24"/>
<circle cx="492.5" cy="81.94" r="1" fill="#1b1f24"/>
<circle cx="499.5" cy="81.94" r="1" fill="#1b1f24"/>
<circle cx="506.5" cy="81.94" r="1" fill="#1b1f24"/>
<circle cx="513.5" cy="81.94" r="1" fill="#1b1f24"/>
<circle cx="520.5" cy="81.94" r="1" fill="#1b1f24"/>
<circle cx="454" cy="75.88" r="1" fill="#1b1f24"/>
<circle cx="461" cy="75.88" r="1" fill="#1b1f24"/>
<circle cx="468" cy="75.88" r="1" fill="#1b1f24"/>
<circle cx="475" cy="75.88" r="1.75" fill="#1b1f24"/>
<circle cx="482" cy="75.88" r="1.75" fill="#1b1f24"/>
<circle cx="489" cy="75.88" r="1.75" fill="#1b1f24"/>
<circle cx="496" cy="75.88" r="1.75" fill="#1b1f24"/>
<circle cx="503" cy="75.88" r="1.75" fill="#1b1f24"/>
<circle cx="510" cy="75.88" r="1" fill="#1b1f24"/>
<circle cx="517" cy="75.88" r="1" fill="#1b1f24"/>
<circle cx="524" cy="75.88" r="1" fill="#1b1f24"/>
<circle cx="450.5" cy="69.81" r="1" fill="#1b1f24"/>
<circle cx="457.5" cy="69.81" r="1" fill="#1b1f24"/>
<circle cx="464.5" cy="69.81" r="1.75" fill="#1b1f24"/>
<circle cx="471.5" cy="69.81" r="1.75" fill="#1b1f24"/>
<circle cx="478.5" cy="69.81" r="1.75" fill="#1b1f24"/>
<circle cx="485.5" cy="69.81" r="1.75" fill="#1b1f24"/>
<circle cx="492.5" cy="69.81" r="1.75" fill="#1b1f24"/>
<circle cx="499.5" cy="69.81" r="1.75" fill="#1b1f24"/>
<circle cx="506.5" cy="69.81" r="1.75" fill="#1b1f24"/>
<circle cx="513.5" cy="69.81" r="1.75" fill="#1b1f24"/>
<circle cx="520.5" cy="69.81" r="1" fill="#1b1f24"/>
<circle cx="527.5" cy="69.81" r="1" fill="#1b1f24"/>
<circle cx="534.5" cy="69.81" r="1" fill="#1b1f24"/>
<circle cx="447" cy="63.75" r="1" fill="#1b1f24"/>
<circle cx="454" cy="63.75" r="1" fill="#1b1f24"/>
<circle cx="461" cy="63.75" r="1.75" fill="#1b1f24"/>
<circle cx="468" cy="63.75" r="1.75" fill="#1b1f24"/>
<circle cx="475" cy="63.75" r="1.75" fill="#1b1f24"/>
<circle cx="482" cy="63.75" r="2.5" fill="#1b1f24"/>
<circle cx="489" cy="63.75" r="2.5" fill="#1b1f24"/>
<circle cx="496" cy="63.75" r="2.5" fill="#1b1f24"/>
<circle cx="503" cy="63.75" r="1.75" fill="#1b1f24"/>
<circle cx="510" cy="63.75" r="1.75" fill="#1b1f24"/>
<circle cx="517" cy="63.75" r="1.75" fill="#1b1f24"/>
<circle cx="524" cy="63.75" r="1" fill="#1b1f24"/>
<circle cx="531" cy="63.75" r="1" fill="#1b1f24"/>
<circle cx="443.5" cy="57.69" r="0.5" fill="#1b1f24"/>
<circle cx="450.5" cy="57.69" r="1" fill="#1b1f24"/>
<circle cx="457.5" cy="57.69" r="1.75" fill="#1b1f24"/>
<circle cx="464.5" cy="57.69" r="1.75" fill="#1b1f24"/>
<circle cx="471.5" cy="57.69" r="2.5" fill="#1b1f24"/>
<circle cx="478.5" cy="57.69" r="2.5" fill="#1b1f24"/>
<circle cx="485.5" cy="57.69" r="2.5" fill="#1b1f24"/>
<circle cx="492.5" cy="57.69" r="2.5" fill="#1b1f24"/>
<circle cx="499.5" cy="57.69" r="2.5" fill="#1b1f24"/>
<circle cx="506.5" cy="57.69" r="2.5" fill="#1b1f24"/>
<circle cx="513.5" cy="57.69" r="1.75" fill="#1b1f24"/>
<circle cx="520.5" cy="57.69" r="1.75" fill="#1b1f24"/>
<circle cx="527.5" cy="57.69" r="1" fill="#1b1f24"/>
<circle cx="534.5" cy="57.69" r="1" fill="#1b1f24"/>
<circle cx="447" cy="51.63" r="1" fill="#1b1f24"/>
<circle cx="454" cy="51.63" r="1.75" fill="#1b1f24"/>
<circle cx="461" cy="51.63" r="1.75" fill="#1b1f24"/>
<circle cx="468" cy="51.63" r="2.5" fill="#1b1f24"/>
<circle cx="475" cy="51.63" r="2.5" fill="#1b1f24"/>
<circle cx="482" cy="51.63" r="2.5" fill="#1b1f24"/>
<circle cx="489" cy="51.63" r="2.75" fill="#1b1f24"/>
<circle cx="496" cy="51.63" r="2.5" fill="#1b1f24"/>
<circle cx="503" cy="51.63" r="2.5" fill="#1b1f24"/>
<circle cx="510" cy="51.63" r="2.5" fill="#1b1f24"/>
<circle cx="517" cy="51.63" r="1.75" fill="#1b1f24"/>
<circle cx="524" cy="51.63" r="1.75" fill="#1b1f24"/>
<circle cx="531" cy="51.63" r="1" fill="#1b1f24"/>
<circle cx="443.5" cy="45.56" r="0.5" fill="#1b1f24"/>
<circle cx="450.5" cy="45.56" r="1.75" fill="#1b1f24"/>
<circle cx="457.5" cy="45.56" r="1.75" fill="#1b1f24"/>
<circle cx="464.5" cy="45.56" r="2.5" fill="#1b1f24"/>
<circle cx="471.5" cy="45.56" r="2.5" fill="#1b1f24"/>
<circle cx="478.5" cy="45.56" r="2.5" fill="#1b1f24"/>
<circle cx="485.5" cy="45.56" r="2.75" fill="#1b1f24"/>
<circle cx="492.5" cy="45.56" r="2.75" fill="#1b1f24"/>
<circle cx="499.5" cy="45.56" r="2.75" fill="#1b1f24"/>
<circle cx="506.5" cy="45.56" r="2.5" fill="#1b1f24"/>
<circle cx="513.5" cy="45.56" r="2.5" fill="#1b1f24"/>
<circle cx="520.5" cy="45.56" r="1.75" fill="#1b1f24"/>
<circle cx="527.5" cy="45.56" r="1.75" fill="#1b1f24"/>
<circle cx="534.5" cy="45.56" r="1" fill="#1b1f24"/>
<circle cx="447" cy="39.5" r="1" fill="#1b1f24"/>
<circle cx="454" cy="39.5" r="1.75" fill="#1b1f24"/>
<circle cx="461" cy="39.5" r="1.75" fill="#1b1f24"/>
<circle cx="468" cy="39.5" r="2.5" fill="#1b1f24"/>
<circle cx="475" cy="39.5" r="2.5" fill="#1b1f24"/>
<circle cx="482" cy="39.5" r="2.75" fill="#1b1f24"/>
<circle cx="489" cy="39.5" r="2.75" fill="#1b1f24"/>
<circle cx="496" cy="39.5" r="2.75" fill="#1b1f24"/>
<circle cx="503" cy="39.5" r="2.75" fill="#1b1f24"/>
<circle cx="510" cy="39.5" r="2.5" fill="#1b1f24"/>
<circle cx="517" cy="39.5" r="2.5" fill="#1b1f24"/>
<circle cx="524" cy="39.5" r="1.75" fill="#1b1f24"/>
<circle cx="531" cy="39.5" r="1.75" fill="#1b1f24"/>
<circle cx="443.5" cy="33.44" r="0.5" fill="#1b1f24"/>
<circle cx="450.5" cy="33.44" r="1.75" fill="#1b1f24"/>
<circle cx="457.5" cy="33.44" r="1.75" fill="#1b1f24"/>
<circle cx="464.5" cy="33.44" r="2.5" fill="#1b1f24"/>
<circle cx="471.5" cy="33.44" r="2.5" fill="#1b1f24"/>
<circle cx="478.5" cy="33.44" r="2.75" fill="#1b1f24"/>
<circle cx="485.5" cy="33.44" r="2.75" fill="#1b1f24"/>
<circle cx="492.5" cy="33.44" r="2.75" fill="#1b1f24"/>
<circle cx="499.5" cy="33.44" r="2.75" fill="#1b1f24"/>
<circle cx="506.5" cy="33.44" r="2.5" fill="#1b1f24"/>
<circle cx="513.5" cy="33.44" r="2.5" fill="#1b1f24"/>
<circle cx="520.5" cy="33.44" r="1.75" fill="#1b1f24"/>
<circle cx="527.5" cy="33.44" r="1.75" fill="#1b1f24"/>
<circle cx="534.5" cy="33.44" r="1" fill="#1b1f24"/>
<circle cx="447" cy="27.38" r="1" fill="#1b1f24"/>
<circle cx="454" cy="27.38" r="1.75" fill="#1b1f24"/>
<circle cx="461" cy="27.38" r="1.75" fill="#1b1f24"/>
<circle cx="468" cy="27.38" r="2.5" fill="#1b1f24"/>
<circle cx="475" cy="27.38" r="2.5" fill="#1b1f24"/>
<circle cx="482" cy="27.38" r="2.75" fill="#1b1f24"/>
<circle cx="489" cy="27.38" r="2.75" fill="#1b1f24"/>
<circle cx="496" cy="27.38" r="2.75" fill="#1b1f24"/>
<circle cx="503" cy="27.38" r="2.5" fill="#1b1f24"/>
<circle cx="510" cy="27.38" r="2.5" fill="#1b1f24"/>
<circle cx="517" cy="27.38" r="1.75" fill="#1b1f24"/>
<circle cx="524" cy="27.38" r="1.75" fill="#1b1f24"/>
<circle cx="531" cy="27.38" r="1" fill="#1b1f24"/>
<circle cx="443.5" cy="21.32" r="0.5" fill="#1b1f24"/>
<circle cx="450.5" cy="21.32" r="1" fill="#1b1f24"/>
<circle cx="457.5" cy="21.32" r="1.75" fill="#1b1f24"/>
<circle cx="464.5" cy="21.32" r="1.75" fill="#1b1f24"/>
<circle cx="471.5" cy="21.32" r="2.5" fill="#1b1f24"/>
<circle cx="478.5" cy="21.32" r="2.5" fill="#1b1f24"/>
<circle cx="485.5" cy="21.32" r="2.5" fill="#1b1f24"/>
<circle cx="492.5" cy="21.32" r="2.5" fill="#1b1f24"/>
<circle cx="499.5" cy="21.32" r="2.5" fill="#1b1f24"/>
<circle cx="506.5" cy="21.32" r="2.5" fill="#1b1f24"/>
<circle cx="513.5" cy="21.32" r="1.75" fill="#1b1f24"/>
<circle cx="520.5" cy="21.32" r="1.75" fill="#1b1f24"/>
<circle cx="527.5" cy="21.32" r="1.75" fill="#1b1f24"/>
<circle cx="534.5" cy="21.32" r="1" fill="#1b1f24"/>
<circle cx="447" cy="15.25" r="1" fill="#1b1f24"/>
<circle cx="454" cy="15.25" r="1" fill="#1b1f24"/>
<circle cx="461" cy="15.25" r="1.75" fill="#1b1f24"/>
<circle cx="468" cy="15.25" r="1.75" fill="#1b1f24"/>
<circle cx="475" cy="15.25" r="2.5" fill="#1b1f24"/>
<circle cx="482" cy="15.25" r="2.5" fill="#1b1f24"/>
<circle cx="489" cy="15.25" r="2.5" fill="#1b1f24"/>
<circle cx="496" cy="15.25" r="2.5" fill="#1b1f24"/>
<circle cx="503" cy="15.25" r="2.5" fill="#1b1f24"/>
<circle cx="510" cy="15.25" r="1.75" fill="#1b1f24"/>
<circle cx="517" cy="15.25" r="1.75" fill="#1b1f24"/>
<circle cx="524" cy="15.25" r="1.75" fill="#1b1f24"/>
<circle cx="531" cy="15.25" r="1" fill="#1b1f24"/>
<circle cx="443.5" cy="9.19" r="0.5" fill="#1b1f24"/>
<circle cx="450.5" cy="9.19" r="1" fill="#1b1f24"/>
<circle cx="457.5" cy="9.19" r="1" fill="#1b1f24"/>
<circle cx="464.5" cy="9.19" r="1.75" fill="#1b1f24"/>
<circle cx="471.5" cy="9.19" r="1.75" fill="#1b1f24"/>
<circle cx="478.5" cy="9.19" r="1.75" fill="#1b1f24"/>
<circle cx="485.5" cy="9.19" r="1.75" fill="#1b1f24"/>
<circle cx="492.5" cy="9.19" r="1.75" fill="#1b1f24"/>
<circle cx="499.5" cy="9.19" r="1.75" fill="#1b1f24"/>
<circle cx="506.5" cy="9.19" r="1.75" fill="#1b1f24"/>
<circle cx="513.5" cy="9.19" r="1.75" fill="#1b1f24"/>
<circle cx="520.5" cy="9.19" r="1" fill="#1b1f24"/>
<circle cx="527.5" cy="9.19" r="1" fill="#1b1f24"/>
<circle cx="534.5" cy="9.19" r="1" fill="#1b1f24"/>
<circle cx="454" cy="3.13" r="1" fill="#1b1f24"/>
<circle cx="461" cy="3.13" r="1" fill="#1b1f24"/>
<circle cx="468" cy="3.13" r="1.75" fill="#1b1f24"/>
<circle cx="475" cy="3.13" r="1.75" fill="#1b1f24"/>
<circle cx="482" cy="3.13" r="1.75" fill="#1b1f24"/>
<circle cx="489" cy="3.13" r="1.75" fill="#1b1f24"/>
<circle cx="496" cy="3.13" r="1.75" fill="#1b1f24"/>
<circle cx="503" cy="3.13" r="1.75" fill="#1b1f24"/>
<circle cx="510" cy="3.13" r="1.75" fill="#1b1f24"/>
<circle cx="517" cy="3.13" r="1" fill="#1b1f24"/>
<circle cx="524" cy="3.13" r="1" fill="#1b1f24"/>
<circle cx="531" cy="3.13" r="1" fill="#1b1f24"/>
<circle cx="457.5" cy="-2.93" r="1" fill="#1b1f24"/>
<circle cx="464.5" cy="-2.93" r="1" fill="#1b1f24"/>
<circle cx="471.5" cy="-2.93" r="1" fill="#1b1f24"/>
<circle cx="478.5" cy="-2.93" r="1" fill="#1b1f24"/>
<circle cx="485.5" cy="-2.93" r="1.75" fill="#1b1f24"/>
<circle cx="492.5" cy="-2.93" r="1.75" fill="#1b1f24"/>
<circle cx="499.5" cy="-2.93" r="1" fill="#1b1f24"/>
<circle cx="506.5" cy="-2.93" r="1" fill="#1b1f24"/>
<circle cx="513.5" cy="-2.93" r="1" fill="#1b1f24"/>
<circle cx="520.5" cy="-2.93" r="1" fill="#1b1f24"/>
<circle cx="490" cy="38" r="2.6" fill="#d9661f" stroke="#fff" stroke-width="0.8"/>
<text x="490" y="100" text-anchor="middle" font-family="system-ui,-apple-system,Segoe UI,sans-serif" font-size="9" fill="#5b636d">Stepped</text>
</svg>
