<svg xmlns="http://www.w3.org/2000/svg" viewBox="-5 -5 210 130" width="420" height="260">
<rect x="-5" y="-5" width="210" height="130" fill="#ffffff"/>
<polygon points="0,120 200,120 200,0 0,0" fill="#c9ced4"/>
<circle cx="10.5" cy="113.94" r="1.56" fill="#1b1f24"/>
<circle cx="17.5" cy="113.94" r="1.56" fill="#1b1f24"/>
<circle cx="24.5" cy="113.94" r="1.56" fill="#1b1f24"/>
<circle cx="31.5" cy="113.94" r="1.56" fill="#1b1f24"/>
<circle cx="38.5" cy="113.94" r="1.56" fill="#1b1f24"/>
<circle cx="45.5" cy="113.94" r="1.56" fill="#1b1f24"/>
<circle cx="52.5" cy="113.94" r="1.56" fill="#1b1f24"/>
<circle cx="59.5" cy="113.94" r="1.56" fill="#1b1f24"/>
<circle cx="66.5" cy="113.94" r="1.56" fill="#1b1f24"/>
<circle cx="73.5" cy="113.94" r="1.56" fill="#1b1f24"/>
<circle cx="80.5" cy="113.94" r="1.56" fill="#1b1f24"/>
<circle cx="87.5" cy="113.94" r="1.56" fill="#1b1f24"/>
<circle cx="94.5" cy="113.94" r="1.56" fill="#1b1f24"/>
<circle cx="101.5" cy="113.94" r="1.56" fill="#1b1f24"/>
<circle cx="108.5" cy="113.94" r="1.56" fill="#1b1f24"/>
<circle cx="115.5" cy="113.94" r="1.56" fill="#1b1f24"/>
<circle cx="122.5" cy="113.94" r="1.56" fill="#1b1f24"/>
<circle cx="129.5" cy="113.94" r="1.56" fill="#1b1f24"/>
<circle cx="136.5" cy="113.94" r="1.56" fill="#1b1f24"/>
<circle cx="143.5" cy="113.94" r="1.56" fill="#1b1f24"/>
<circle cx="150.5" cy="113.94" r="1.56" fill="#1b1f24"/>
<circle cx="157.5" cy="113.94" r="1.56" fill="#1b1f24"/>
<circle cx="164.5" cy="113.94" r="1.56" fill="#1b1f24"/>
<circle cx="171.5" cy="113.94" r="1.56" fill="#1b1f24"/>
<circle cx="178.5" cy="113.94" r="1.56" fill="#1b1f24"/>
<circle cx="185.5" cy="113.94" r="1.56" fill="#1b1f24"/>
<circle cx="192.5" cy="113.94" r="1.56" fill="#1b1f24"/>
<circle cx="7" cy="107.88" r="2.5" fill="#1b1f24"/>
<circle cx="14" cy="107.88" r="2.5" fill="#1b1f24"/>
<circle cx="21" cy="107.88" r="1.44" fill="#1b1f24"/>
<circle cx="28" cy="107.88" r="2.5" fill="#1b1f24"/>
<circle cx="35" cy="107.88" r="2.5" fill="#1b1f24"/>
<circle cx="42" cy="107.88" r="2.5" fill="#1b1f24"/>
<circle cx="49" cy="107.88" r="2.5" fill="#1b1f24"/>
<circle cx="56" cy="107.88" r="2.5" fill="#1b1f24"/>
<circle cx="63" cy="107.88" r="2.5" fill="#1b1f24"/>
<circle cx="70" cy="107.88" r="2.5" fill="#1b1f24"/>
<circle cx="77" cy="107.88" r="2.5" fill="#1b1f24"/>
<circle cx="84" cy="107.88" r="2.5" fill="#1b1f24"/>
<circle cx="91" cy="107.88" r="2.5" fill="#1b1f24"/>
<circle cx="98" cy="107.88" r="2.5" fill="#1b1f24"/>
<circle cx="105" cy="107.88" r="2.5" fill="#1b1f24"/>
<circle cx="112" cy="107.88" r="2.5" fill="#1b1f24"/>
<circle cx="119" cy="107.88" r="2.5" fill="#1b1f24"/>
<circle cx="126" cy="107.88" r="2.5" fill="#1b1f24"/>
<circle cx="133" cy="107.88" r="2.5" fill="#1b1f24"/>
<circle cx="140" cy="107.88" r="2.5" fill="#1b1f24"/>
<circle cx="147" cy="107.88" r="2.5" fill="#1b1f24"/>
<circle cx="154" cy="107.88" r="2.5" fill="#1b1f24"/>
<circle cx="161" cy="107.88" r="2.5" fill="#1b1f24"/>
<circle cx="168" cy="107.88" r="2.5" fill="#1b1f24"/>
<circle cx="175" cy="107.88" r="2.5" fill="#1b1f24"/>
<circle cx="182" cy="107.88" r="1.63" fill="#1b1f24"/>
<circle cx="189" cy="107.88" r="2.5" fill="#1b1f24"/>
<circle cx="10.5" cy="101.81" r="2.5" fill="#1b1f24"/>
<circle cx="31.5" cy="101.81" r="2.5" fill="#1b1f24"/>
<circle cx="38.5" cy="101.81" r="2.5" fill="#1b1f24"/>
<circle cx="45.5" cy="101.81" r="2.5" fill="#1b1f24"/>
<circle cx="52.5" cy="101.81" r="2.5" fill="#1b1f24"/>
<circle cx="59.5" cy="101.81" r="2.5" fill="#1b1f24"/>
<circle cx="66.5" cy="101.81" r="2.5" fill="#1b1f24"/>
<circle cx="73.5" cy="101.81" r="2.5" fill="#1b1f24"/>
<circle cx="80.5" cy="101.81" r="2.5" fill="#1b1f24"/>
<circle cx="87.5" cy="101.81" r="2.5" fill="#1b1f24"/>
<circle cx="94.5" cy="101.81" r="2.5" fill="#1b1f24"/>
<circle cx="101.5" cy="101.81" r="2.5" fill="#1b1f24"/>
<circle cx="108.5" cy="101.81" r="2.5" fill="#1b1f24"/>
<circle cx="115.5" cy="101.81" r="2.5" fill="#1b1f24"/>
<circle cx="122.5" cy="101.81" r="2.5" fill="#1b1f24"/>
<circle cx="129.5" cy="101.81" r="2.5" fill="#1b1f24"/>
<circle cx="136.5" cy="101.81" r="2.5" fill="#1b1f24"/>
<circle cx="143.5" cy="101.81" r="2.5" fill="#1b1f24"/>
<circle cx="150.5" cy="101.81" r="2.5" fill="#1b1f24"/>
<circle cx="157.5" cy="101.81" r="2.5" fill="#1b1f24"/>
<circle cx="164.5" cy="101.81" r="2.5" fill="#1b1f24"/>
<circle cx="171.5" cy="101.81" r="2.2" fill="#1b1f24"/>
<circle cx="192.5" cy="101.81" r="2.5" fill="#1b1f24"/>
<circle cx="7" cy="95.75" r="2.5" fill="#1b1f24"/>
<circle cx="14" cy="95.75" r="0.86" fill="#1b1f24"/>
<circle cx="28" cy="95.75" r="2.5" fill="#1b1f24"/>
<circle cx="35" cy="95.75" r="2.5" fill="#1b1f24"/>
<circle cx="42" cy="95.75" r="2.5" fill="#1b1f24"/>
<circle cx="49" cy="95.75" r="2.5" fill="#1b1f24"/>
<circle cx="56" cy="95.75" r="2.5" fill="#1b1f24"/>
<circle cx="63" cy="95.75" r="2.5" fill="#1b1f24"/>
<circle cx="70" cy="95.75" r="2.5" fill="#1b1f24"/>
<circle cx="77" cy="95.75" r="2.5" fill="#1b1f24"/>
<circle cx="84" cy="95.75" r="2.5" fill="#1b1f24"/>
<circle cx="91" cy="95.75" r="2.5" fill="#1b1f24"/>
<circle cx="98" cy="95.75" r="2.5" fill="#1b1f24"/>
<circle cx="105" cy="95.75" r="2.5" fill="#1b1f24"/>
<circle cx="112" cy="95.75" r="2.5" fill="#1b1f24"/>
<circle cx="119" cy="95.75" r="2.5" fill="#1b1f24"/>
<circle cx="126" cy="95.75" r="2.5" fill="#1b1f24"/>
<circle cx="133" cy="95.75" r="2.5" fill="#1b1f24"/>
<circle cx="140" cy="95.75" r="2.5" fill="#1b1f24"/>
<circle cx="147" cy="95.75" r="2.5" fill="#1b1f24"/>
<circle cx="154" cy="95.75" r="2.5" fill="#1b1f24"/>
<circle cx="161" cy="95.75" r="2.5" fill="#1b1f24"/>
<circle cx="168" cy="95.75" r="2.5" fill="#1b1f24"/>
<circle cx="189" cy="95.75" r="2.5" fill="#1b1f24"/>
<circle cx="10.5" cy="89.69" r="2.5" fill="#1b1f24"/>
<circle cx="17.5" cy="89.69" r="2.5" fill="#1b1f24"/>
<circle cx="24.5" cy="89.69" r="2.5" fill="#1b1f24"/>
<circle cx="31.5" cy="89.69" r="2.5" fill="#1b1f24"/>
<circle cx="38.5" cy="89.69" r="2.5" fill="#1b1f24"/>
<circle cx="45.5" cy="89.69" r="2.5" fill="#1b1f24"/>
<circle cx="52.5" cy="89.69" r="2.5" fill="#1b1f24"/>
<circle cx="59.5" cy="89.69" r="2.5" fill="#1b1f24"/>
<circle cx="66.5" cy="89.69" r="2.5" fill="#1b1f24"/>
<circle cx="73.5" cy="89.69" r="2.5" fill="#1b1f24"/>
<circle cx="80.5" cy="89.69" r="2.5" fill="#1b1f24"/>
<circle cx="87.5" cy="89.69" r="2.5" fill="#1b1f24"/>
<circle cx="94.5" cy="89.69" r="2.5" fill="#1b1f24"/>
<circle cx="101.5" cy="89.69" r="2.5" fill="#1b1f24"/>
<circle cx="108.5" cy="89.69" r="2.5" fill="#1b1f24"/>
<circle cx="115.5" cy="89.69" r="2.5" fill="#1b1f24"/>
<circle cx="122.5" cy="89.69" r="2.5" fill="#1b1f24"/>
<circle cx="129.5" cy="89.69" r="2.5" fill="#1b1f24"/>
<circle cx="136.5" cy="89.69" r="2.5" fill="#1b1f24"/>
<circle cx="143.5" cy="89.69" r="2.5" fill="#1b1f24"/>
<circle cx="150.5" cy="89.69" r="2.5" fill="#1b1f24"/>
<circle cx="157.5" cy="89.69" r="2.5" fill="#1b1f24"/>
<circle cx="164.5" cy="89.69" r="2.5" fill="#1b1f24"/>
<circle cx="171.5" cy="89.69" r="2.5" fill="#1b1f24"/>
<circle cx="178.5" cy="89.69" r="2.5" fill="#1b1f24"/>
<circle cx="185.5" cy="89.69" r="2.5" fill="#1b1f24"/>
<circle cx="192.5" cy="89.69" r="2.5" fill="#1b1f24"/>
<circle cx="7" cy="83.63" r="2.5" fill="#1b1f24"/>
<circle cx="14" cy="83.63" r="2.5" fill="#1b1f24"/>
<circle cx="21" cy="83.63" r="2.5" fill="#1b1f24"/>
<circle cx="28" cy="83.63" r="2.5" fill="#1b1f24"/>
<circle cx="35" cy="83.63" r="2.5" fill="#1b1f24"/>
<circle cx="42" cy="83.63" r="2.5" fill="#1b1f24"/>
<circle cx="49" cy="83.63" r="2.5" fill="#1b1f24"/>
<circle cx="56" cy="83.63" r="2.5" fill="#1b1f24"/>
<circle cx="63" cy="83.63" r="2.5" fill="#1b1f24"/>
<circle cx="70" cy="83.63" r="2.5" fill="#1b1f24"/>
<circle cx="77" cy="83.63" r="2.5" fill="#1b1f24"/>
<circle cx="84" cy="83.63" r="2.5" fill="#1b1f24"/>
<circle cx="91" cy="83.63" r="2.5" fill="#1b1f24"/>
<circle cx="98" cy="83.63" r="2.5" fill="#1b1f24"/>
<circle cx="105" cy="83.63" r="2.5" fill="#1b1f24"/>
<circle cx="112" cy="83.63" r="2.5" fill="#1b1f24"/>
<circle cx="119" cy="83.63" r="2.5" fill="#1b1f24"/>
<circle cx="126" cy="83.63" r="2.5" fill="#1b1f24"/>
<circle cx="133" cy="83.63" r="2.5" fill="#1b1f24"/>
<circle cx="140" cy="83.63" r="2.5" fill="#1b1f24"/>
<circle cx="147" cy="83.63" r="2.5" fill="#1b1f24"/>
<circle cx="154" cy="83.63" r="2.5" fill="#1b1f24"/>
<circle cx="161" cy="83.63" r="2.5" fill="#1b1f24"/>
<circle cx="168" cy="83.63" r="2.5" fill="#1b1f24"/>
<circle cx="175" cy="83.63" r="2.5" fill="#1b1f24"/>
<circle cx="182" cy="83.63" r="2.5" fill="#1b1f24"/>
<circle cx="189" cy="83.63" r="2.5" fill="#1b1f24"/>
<circle cx="10.5" cy="77.56" r="2.5" fill="#1b1f24"/>
<circle cx="17.5" cy="77.56" r="2.5" fill="#1b1f24"/>
<circle cx="24.5" cy="77.56" r="2.5" fill="#1b1f24"/>
<circle cx="31.5" cy="77.56" r="2.5" fill="#1b1f24"/>
<circle cx="38.5" cy="77.56" r="2.5" fill="#1b1f24"/>
<circle cx="45.5" cy="77.56" r="2.5" fill="#1b1f24"/>
<circle cx="52.5" cy="77.56" r="2.5" fill="#1b1f24"/>
<circle cx="59.5" cy="77.56" r="2.5" fill="#1b1f24"/>
<circle cx="66.5" cy="77.56" r="2.5" fill="#1b1f24"/>
<circle cx="73.5" cy="77.56" r="2.5" fill="#1b1f24"/>
<circle cx="80.5" cy="77.56" r="2.5" fill="#1b1f24"/>
<circle cx="87.5" cy="77.56" r="2.5" fill="#1b1f24"/>
<circle cx="94.5" cy="77.56" r="2.5" fill="#1b1f24"/>
<circle cx="101.5" cy="77.56" r="2.5" fill="#1b1f24"/>
<circle cx="108.5" cy="77.56" r="2.5" fill="#1b1f24"/>
<circle cx="115.5" cy="77.56" r="2.5" fill="#1b1f24"/>
<circle cx="122.5" cy="77.56" r="2.5" fill="#1b1f24"/>
<circle cx="129.5" cy="77.56" r="2.5" fill="#1b1f24"/>
<circle cx="136.5" cy="77.56" r="2.5" fill="#1b1f24"/>
<circle cx="143.5" cy="77.56" r="2.5" fill="#1b1f24"/>
<circle cx="150.5" cy="77.56" r="2.5" fill="#1b1f24"/>
<circle cx="157.5" cy="77.56" r="2.5" fill="#1b1f24"/>
<circle cx="164.5" cy="77.56" r="2.5" fill="#1b1f24"/>
<circle cx="171.5" cy="77.56" r="2.5" fill="#1b1f24"/>
<circle cx="178.5" cy="77.56" r="2.5" fill="#1b1f24"/>
<circle cx="185.5" cy="77.56" r="2.5" fill="#1b1f24"/>
<circle cx="192.5" cy="77.56" r="2.5" fill="#1b1f24"/>
<circle cx="7" cy="71.5" r="2.5" fill="#1b1f24"/>
<circle cx="14" cy="71.5" r="2.5" fill="#1b1f24"/>
<circle cx="21" cy="71.5" r="2.5" fill="#1b1f24"/>
<circle cx="28" cy="71.5" r="2.5" fill="#1b1f24"/>
<circle cx="35" cy="71.5" r="2.5" fill="#1b1f24"/>
<circle cx="42" cy="71.5" r="2.5" fill="#1b1f24"/>
<circle cx="49" cy="71.5" r="2.5" fill="#1b1f24"/>
<circle cx="56" cy="71.5" r="2.5" fill="#1b1f24"/>
<circle cx="63" cy="71.5" r="2.5" fill="#1b1f24"/>
<circle cx="70" cy="71.5" r="2.5" fill="#1b1f24"/>
<circle cx="133" cy="71.5" r="2.5" fill="#1b1f24"/>
<circle cx="140" cy="71.5" r="2.5" fill="#1b1f24"/>
<circle cx="147" cy="71.5" r="2.5" fill="#1b1f24"/>
<circle cx="154" cy="71.5" r="2.5" fill="#1b1f24"/>
<circle cx="161" cy="71.5" r="2.5" fill="#1b1f24"/>
<circle cx="168" cy="71.5" r="2.5" fill="#1b1f24"/>
<circle cx="175" cy="71.5" r="2.5" fill="#1b1f24"/>
<circle cx="182" cy="71.5" r="2.5" fill="#1b1f24"/>
<circle cx="189" cy="71.5" r="2.5" fill="#1b1f24"/>
<circle cx="10.5" cy="65.44" r="2.5" fill="#1b1f24"/>
<circle cx="17.5" cy="65.44" r="2.5" fill="#1b1f24"/>
<circle cx="24.5" cy="65.44" r="2.5" fill="#1b1f24"/>
<circle cx="31.5" cy="65.44" r="2.5" fill="#1b1f24"/>
<circle cx="38.5" cy="65.44" r="2.5" fill="#1b1f24"/>
<circle cx="45.5" cy="65.44" r="2.5" fill="#1b1f24"/>
<circle cx="52.5" cy="65.44" r="2.5" fill="#1b1f24"/>
<circle cx="59.5" cy="65.44" r="2.5" fill="#1b1f24"/>
<circle cx="66.5" cy="65.44" r="2.5" fill="#1b1f24"/>
<circle cx="129.5" cy="65.44" r="2.5" fill="#1b1f24"/>
<circle cx="136.5" cy="65.44" r="2.5" fill="#1b1f24"/>
<circle cx="143.5" cy="65.44" r="2.5" fill="#1b1f24"/>
<circle cx="150.5" cy="65.44" r="2.5" fill="#1b1f24"/>
<circle cx="157.5" cy="65.44" r="2.5" fill="#1b1f24"/>
<circle cx="164.5" cy="65.44" r="2.5" fill="#1b1f24"/>
<circle cx="171.5" cy="65.44" r="2.5" fill="#1b1f24"/>
<circle cx="178.5" cy="65.44" r="2.5" fill="#1b1f24"/>
<circle cx="185.5" cy="65.44" r="2.5" fill="#1b1f24"/>
<circle cx="192.5" cy="65.44" r="2.5" fill="#1b1f24"/>
<circle cx="7" cy="59.38" r="2.5" fill="#1b1f24"/>
<circle cx="14" cy="59.38" r="2.5" fill="#1b1f24"/>
<circle cx="21" cy="59.38" r="2.5" fill="#1b1f24"/>
<circle cx="28" cy="59.38" r="2.5" fill="#1b1f24"/>
<circle cx="35" cy="59.38" r="2.5" fill="#1b1f24"/>
<circle cx="42" cy="59.38" r="2.5" fill="#1b1f24"/>
<circle cx="49" cy="59.38" r="2.5" fill="#1b1f24"/>
<circle cx="56" cy="59.38" r="2.5" fill="#1b1f24"/>
<circle cx="63" cy="59.38" r="2.5" fill="#1b1f24"/>
<circle cx="70" cy="59.38" r="2.5" fill="#1b1f24"/>
<circle cx="133" cy="59.38" r="2.5" fill="#1b1f24"/>
<circle cx="140" cy="59.38" r="2.5" fill="#1b1f24"/>
<circle cx="147" cy="59.38" r="2.5" fill="#1b1f24"/>
<circle cx="154" cy="59.38" r="2.5" fill="#1b1f24"/>
<circle cx="161" cy="59.38" r="2.5" fill="#1b1f24"/>
<circle cx="168" cy="59.38" r="2.5" fill="#1b1f24"/>
<circle cx="175" cy="59.38" r="2.5" fill="#1b1f24"/>
<circle cx="182" cy="59.38" r="2.5" fill="#1b1f24"/>
<circle cx="189" cy="59.38" r="2.5" fill="#1b1f24"/>
<circle cx="10.5" cy="53.32" r="2.5" fill="#1b1f24"/>
<circle cx="17.5" cy="53.32" r="2.5" fill="#1b1f24"/>
<circle cx="24.5" cy="53.32" r="2.5" fill="#1b1f24"/>
<circle cx="31.5" cy="53.32" r="2.5" fill="#1b1f24"/>
<circle cx="38.5" cy="53.32" r="2.5" fill="#1b1f24"/>
<circle cx="45.5" cy="53.32" r="2.5" fill="#1b1f24"/>
<circle cx="52.5" cy="53.32" r="2.5" fill="#1b1f24"/>
<circle cx="59.5" cy="53.32" r="2.5" fill="#1b1f24"/>
<circle cx="66.5" cy="53.32" r="2.5" fill="#1b1f24"/>
<circle cx="129.5" cy="53.32" r="2.5" fill="#1b1f24"/>
<circle cx="136.5" cy="53.32" r="2.5" fill="#1b1f24"/>
<circle cx="143.5" cy="53.32" r="2.5" fill="#1b1f24"/>
<circle cx="150.5" cy="53.32" r="2.5" fill="#1b1f24"/>
<circle cx="157.5" cy="53.32" r="2.5" fill="#1b1f24"/>
<circle cx="164.5" cy="53.32" r="2.5" fill="#1b1f24"/>
<circle cx="171.5" cy="53.32" r="2.5" fill="#1b1f24"/>
<circle cx="178.5" cy="53.32" r="2.5" fill="#1b1f24"/>
<circle cx="185.5" cy="53.32" r="2.5" fill="#1b1f24"/>
<circle cx="192.5" cy="53.32" r="2.5" fill="#1b1f24"/>
<circle cx="7" cy="47.25" r="2.5" fill="#1b1f24"/>
<circle cx="14" cy="47.25" r="2.5" fill="#1b1f24"/>
<circle cx="21" cy="47.25" r="2.5" fill="#1b1f24"/>
<circle cx="28" cy="47.25" r="2.5" fill="#1b1f24"/>
<circle cx="35" cy="47.25" r="2.5" fill="#1b1f24"/>
<circle cx="42" cy="47.25" r="2.5" fill="#1b1f24"/>
<circle cx="49" cy="47.25" r="2.5" fill="#1b1f24"/>
<circle cx="56" cy="47.25" r="2.5" fill="#1b1f24"/>
<circle cx="63" cy="47.25" r="2.5" fill="#1b1f24"/>
<circle cx="70" cy="47.25" r="2.5" fill="#1b1f24"/>
<circle cx="133" cy="47.25" r="2.5" fill="#1b1f24"/>
<circle cx="140" cy="47.25" r="2.5" fill="#1b1f24"/>
<circle cx="147" cy="47.25" r="2.5" fill="#1b1f24"/>
<circle cx="154" cy="47.25" r="2.5" fill="#1b1f24"/>
<circle cx="161" cy="47.25" r="2.5" fill="#1b1f24"/>
<circle cx="168" cy="47.25" r="2.5" fill="#1b1f24"/>
<circle cx="175" cy="47.25" r="2.5" fill="#1b1f24"/>
<circle cx="182" cy="47.25" r="2.5" fill="#1b1f24"/>
<circle cx="189" cy="47.25" r="2.5" fill="#1b1f24"/>
<circle cx="10.5" cy="41.19" r="2.5" fill="#1b1f24"/>
<circle cx="17.5" cy="41.19" r="2.5" fill="#1b1f24"/>
<circle cx="24.5" cy="41.19" r="2.5" fill="#1b1f24"/>
<circle cx="31.5" cy="41.19" r="2.5" fill="#1b1f24"/>
<circle cx="38.5" cy="41.19" r="2.5" fill="#1b1f24"/>
<circle cx="45.5" cy="41.19" r="2.5" fill="#1b1f24"/>
<circle cx="52.5" cy="41.19" r="2.5" fill="#1b1f24"/>
<circle cx="59.5" cy="41.19" r="2.5" fill="#1b1f24"/>
<circle cx="66.5" cy="41.19" r="2.5" fill="#1b1f24"/>
<circle cx="73.5" cy="41.19" r="2.5" fill="#1b1f24"/>
<circle cx="80.5" cy="41.19" r="2.5" fill="#1b1f24"/>
<circle cx="87.5" cy="41.19" r="2.5" fill="#1b1f24"/>
<circle cx="94.5" cy="41.19" r="2.5" fill="#1b1f24"/>
<circle cx="101.5" cy="41.19" r="2.5" fill="#1b1f24"/>
<circle cx="108.5" cy="41.19" r="2.5" fill="#1b1f24"/>
<circle cx="115.5" cy="41.19" r="2.5" fill="#1b1f24"/>
<circle cx="122.5" cy="41.19" r="2.5" fill="#1b1f24"/>
<circle cx="129.5" cy="41.19" r="2.5" fill="#1b1f24"/>
<circle cx="136.5" cy="41.19" r="2.5" fill="#1b1f24"/>
<circle cx="143.5" cy="41.19" r="2.5" fill="#1b1f24"/>
<circle cx="150.5" cy="41.19" r="2.5" fill="#1b1f24"/>
<circle cx="157.5" cy="41.19" r="2.5" fill="#1b1f24"/>
<circle cx="164.5" cy="41.19" r="2.5" fill="#1b1f24"/>
<circle cx="171.5" cy="41.19" r="2.5" fill="#1b1f24"/>
<circle cx="178.5" cy="41.19" r="2.5" fill="#1b1f24"/>
<circle cx="185.5" cy="41.19" r="2.5" fill="#1b1f24"/>
<circle cx="192.5" cy="41.19" r="2.5" fill="#1b1f24"/>
<circle cx="7" cy="35.13" r="2.5" fill="#1b1f24"/>
<circle cx="14" cy="35.13" r="2.5" fill="#1b1f24"/>
<circle cx="21" cy="35.13" r="2.5" fill="#1b1f24"/>
<circle cx="28" cy="35.13" r="2.5" fill="#1b1f24"/>
<circle cx="35" cy="35.13" r="2.5" fill="#1b1f24"/>
<circle cx="42" cy="35.13" r="2.5" fill="#1b1f24"/>
<circle cx="49" cy="35.13" r="2.5" fill="#1b1f24"/>
<circle cx="56" cy="35.13" r="2.5" fill="#1b1f24"/>
<circle cx="63" cy="35.13" r="2.5" fill="#1b1f24"/>
<circle cx="70" cy="35.13" r="2.5" fill="#1b1f24"/>
<circle cx="77" cy="35.13" r="2.5" fill="#1b1f24"/>
<circle cx="84" cy="35.13" r="2.5" fill="#1b1f24"/>
<circle cx="91" cy="35.13" r="2.5" fill="#1b1f24"/>
<circle cx="98" cy="35.13" r="2.5" fill="#1b1f24"/>
<circle cx="105" cy="35.13" r="2.5" fill="#1b1f24"/>
<circle cx="112" cy="35.13" r="2.5" fill="#1b1f24"/>
<circle cx="119" cy="35.13" r="2.5" fill="#1b1f24"/>
<circle cx="126" cy="35.13" r="2.5" fill="#1b1f24"/>
<circle cx="133" cy="35.13" r="2.5" fill="#1b1f24"/>
<circle cx="140" cy="35.13" r="2.5" fill="#1b1f24"/>
<circle cx="147" cy="35.13" r="2.5" fill="#1b1f24"/>
<circle cx="154" cy="35.13" r="2.5" fill="#1b1f24"/>
<circle cx="161" cy="35.13" r="2.5" fill="#1b1f24"/>
<circle cx="168" cy="35.13" r="2.5" fill="#1b1f24"/>
<circle cx="175" cy="35.13" r="2.5" fill="#1b1f24"/>
<circle cx="182" cy="35.13" r="2.5" fill="#1b1f24"/>
<circle cx="189" cy="35.13" r="2.5" fill="#1b1f24"/>
<circle cx="10.5" cy="29.07" r="2.5" fill="#1b1f24"/>
<circle cx="17.5" cy="29.07" r="2.5" fill="#1b1f24"/>
<circle cx="24.5" cy="29.07" r="2.5" fill="#1b1f24"/>
<circle cx="31.5" cy="29.07" r="2.5" fill="#1b1f24"/>
<circle cx="38.5" cy="29.07" r="2.5" fill="#1b1f24"/>
<circle cx="45.5" cy="29.07" r="2.5" fill="#1b1f24"/>
<circle cx="52.5" cy="29.07" r="2.5" fill="#1b1f24"/>
<circle cx="59.5" cy="29.07" r="2.5" fill="#1b1f24"/>
<circle cx="66.5" cy="29.07" r="2.5" fill="#1b1f24"/>
<circle cx="73.5" cy="29.07" r="2.5" fill="#1b1f24"/>
<circle cx="80.5" cy="29.07" r="2.5" fill="#1b1f24"/>
<circle cx="87.5" cy="29.07" r="2.5" fill="#1b1f24"/>
<circle cx="94.5" cy="29.07" r="2.5" fill="#1b1f24"/>
<circle cx="101.5" cy="29.07" r="2.5" fill="#1b1f24"/>
<circle cx="108.5" cy="29.07" r="2.5" fill="#1b1f24"/>
<circle cx="115.5" cy="29.07" r="2.5" fill="#1b1f24"/>
<circle cx="122.5" cy="29.07" r="2.5" fill="#1b1f24"/>
<circle cx="129.5" cy="29.07" r="2.5" fill="#1b1f24"/>
<circle cx="136.5" cy="29.07" r="2.5" fill="#1b1f24"/>
<circle cx="143.5" cy="29.07" r="2.5" fill="#1b1f24"/>
<circle cx="150.5" cy="29.07" r="2.5" fill="#1b1f24"/>
<circle cx="157.5" cy="29.07" r="2.5" fill="#1b1f24"/>
<circle cx="164.5" cy="29.07" r="2.5" fill="#1b1f24"/>
<circle cx="171.5" cy="29.07" r="2.5" fill="#1b1f24"/>
<circle cx="178.5" cy="29.07" r="2.5" fill="#1b1f24"/>
<circle cx="185.5" cy="29.07" r="2.5" fill="#1b1f24"/>
<circle cx="192.5" cy="29.07" r="2.5" fill="#1b1f24"/>
<circle cx="7" cy="23.01" r="2.5" fill="#1b1f24"/>
<circle cx="28" cy="23.01" r="2.05" fill="#1b1f24"/>
<circle cx="35" cy="23.01" r="2.5" fill="#1b1f24"/>
<circle cx="42" cy="23.01" r="2.5" fill="#1b1f24"/>
<circle cx="49" cy="23.01" r="2.5" fill="#1b1f24"/>
<circle cx="56" cy="23.01" r="2.5" fill="#1b1f24"/>
<circle cx="63" cy="23.01" r="2.5" fill="#1b1f24"/>
<circle cx="70" cy="23.01" r="2.5" fill="#1b1f24"/>
<circle cx="77" cy="23.01" r="2.5" fill="#1b1f24"/>
<circle cx="84" cy="23.01" r="2.5" fill="#1b1f24"/>
<circle cx="91" cy="23.01" r="2.5" fill="#1b1f24"/>
<circle cx="98" cy="23.01" r="2.5" fill="#1b1f24"/>
<circle cx="105" cy="23.01" r="2.5" fill="#1b1f24"/>
<circle cx="112" cy="23.01" r="2.5" fill="#1b1f24"/>
<circle cx="119" cy="23.01" r="2.5" fill="#1b1f24"/>
<circle cx="126" cy="23.01" r="2.5" fill="#1b1f24"/>
<circle cx="133" cy="23.01" r="2.5" fill="#1b1f24"/>
<circle cx="140" cy="23.01" r="2.5" fill="#1b1f24"/>
<circle cx="147" cy="23.01" r="2.5" fill="#1b1f24"/>
<circle cx="154" cy="23.01" r="2.5" fill="#1b1f24"/>
<circle cx="161" cy="23.01" r="2.5" fill="#1b1f24"/>
<circle cx="168" cy="23.01" r="2.5" fill="#1b1f24"/>
<circle cx="189" cy="23.01" r="2.5" fill="#1b1f24"/>
<circle cx="10.5" cy="16.94" r="2.5" fill="#1b1f24"/>
<circle cx="31.5" cy="16.94" r="2.5" fill="#1b1f24"/>
<circle cx="38.5" cy="16.94" r="2.5" fill="#1b1f24"/>
<circle cx="45.5" cy="16.94" r="2.5" fill="#1b1f24"/>
<circle cx="52.5" cy="16.94" r="2.5" fill="#1b1f24"/>
<circle cx="59.5" cy="16.94" r="2.5" fill="#1b1f24"/>
<circle cx="66.5" cy="16.94" r="2.5" fill="#1b1f24"/>
<circle cx="73.5" cy="16.94" r="2.5" fill="#1b1f24"/>
<circle cx="80.5" cy="16.94" r="2.5" fill="#1b1f24"/>
<circle cx="87.5" cy="16.94" r="2.5" fill="#1b1f24"/>
<circle cx="94.5" cy="16.94" r="2.5" fill="#1b1f24"/>
<circle cx="101.5" cy="16.94" r="2.5" fill="#1b1f24"/>
<circle cx="108.5" cy="16.94" r="2.5" fill="#1b1f24"/>
<circle cx="115.5" cy="16.94" r="2.5" fill="#1b1f24"/>
<circle cx="122.5" cy="16.94" r="2.5" fill="#1b1f24"/>
<circle cx="129.5" cy="16.94" r="2.5" fill="#1b1f24"/>
<circle cx="136.5" cy="16.94" r="2.5" fill="#1b1f24"/>
<circle cx="143.5" cy="16.94" r="2.5" fill="#1b1f24"/>
<circle cx="150.5" cy="16.94" r="2.5" fill="#1b1f24"/>
<circle cx="157.5" cy="16.94" r="2.5" fill="#1b1f24"/>
<circle cx="164.5" cy="16.94" r="2.5" fill="#1b1f24"/>
<circle cx="171.5" cy="16.94" r="2.5" fill="#1b1f24"/>
<circle cx="192.5" cy="16.94" r="2.5" fill="#1b1f24"/>
<circle cx="7" cy="10.88" r="2.5" fill="#1b1f24"/>
<circle cx="14" cy="10.88" r="2.5" fill="#1b1f24"/>
<circle cx="21" cy="10.88" r="2.5" fill="#1b1f24"/>
<circle cx="28" cy="10.88" r="2.5" fill="#1b1f24"/>
<circle cx="35" cy="10.88" r="2.5" fill="#1b1f24"/>
<circle cx="42" cy="10.88" r="2.5" fill="#1b1f24"/>
<circle cx="49" cy="10.88" r="2.5" fill="#1b1f24"/>
<circle cx="56" cy="10.88" r="2.5" fill="#1b1f24"/>
<circle cx="63" cy="10.88" r="2.5" fill="#1b1f24"/>
<circle cx="70" cy="10.88" r="2.5" fill="#1b1f24"/>
<circle cx="77" cy="10.88" r="2.5" fill="#1b1f24"/>
<circle cx="84" cy="10.88" r="2.5" fill="#1b1f24"/>
<circle cx="91" cy="10.88" r="2.5" fill="#1b1f24"/>
<circle cx="98" cy="10.88" r="2.5" fill="#1b1f24"/>
<circle cx="105" cy="10.88" r="2.5" fill="#1b1f24"/>
<circle cx="112" cy="10.88" r="2.5" fill="#1b1f24"/>
<circle cx="119" cy="10.88" r="2.5" fill="#1b1f24"/>
<circle cx="126" cy="10.88" r="2.5" fill="#1b1f24"/>
<circle cx="133" cy="10.88" r="2.5" fill="#1b1f24"/>
<circle cx="140" cy="10.88" r="2.5" fill="#1b1f24"/>
<circle cx="147" cy="10.88" r="2.5" fill="#1b1f24"/>
<circle cx="154" cy="10.88" r="2.5" fill="#1b1f24"/>
<circle cx="161" cy="10.88" r="2.5" fill="#1b1f24"/>
<circle cx="168" cy="10.88" r="2.5" fill="#1b1f24"/>
<circle cx="175" cy="10.88" r="2.5" fill="#1b1f24"/>
<circle cx="182" cy="10.88" r="2.5" fill="#1b1f24"/>
<circle cx="189" cy="10.88" r="2.5" fill="#1b1f24"/>
<polygon points="25,100 24.96,99.35 24.83,98.71 24.62,98.09 24.33,97.5 23.97,96.96 23.54,96.46 23.04,96.03 22.5,95.67 21.91,95.38 21.29,95.17 20.65,95.04 20,95 19.35,95.04 18.71,95.17 18.09,95.38 17.5,95.67 16.96,96.03 16.46,96.46 16.03,96.96 15.67,97.5 15.38,98.09 15.17,98.71 15.04,99.35 15,100 15.04,100.65 15.17,101.29 15.38,101.91 15.67,102.5 16.03,103.04 16.46,103.54 16.96,103.97 17.5,104.33 18.09,104.62 18.71,104.83 19.35,104.96 20,105 20.65,104.96 21.29,104.83 21.91,104.62 22.5,104.33 23.04,103.97 23.54,103.54 23.97,103.04 24.33,102.5 24.62,101.91 24.83,101.29 24.96,100.65" fill="none" stroke="#d9661f" stroke-width="1.6" stroke-linejoin="round"/>
<polygon points="185,100 184.96,99.35 184.83,98.71 184.62,98.09 184.33,97.5 183.97,96.96 183.54,96.46 183.04,96.03 182.5,95.67 181.91,95.38 181.29,95.17 180.65,95.04 180,95 179.35,95.04 178.71,95.17 178.09,95.38 177.5,95.67 176.96,96.03 176.46,96.46 176.03,96.96 175.67,97.5 175.38,98.09 175.17,98.71 175.04,99.35 175,100 175.04,100.65 175.17,101.29 175.38,101.91 175.67,102.5 176.03,103.04 176.46,103.54 176.96,103.97 177.5,104.33 178.09,104.62 178.71,104.83 179.35,104.96 180,105 180.65,104.96 181.29,104.83 181.91,104.62 182.5,104.33 183.04,103.97 183.54,103.54 183.97,103.04 184.33,102.5 184.62,101.91 184.83,101.29 184.96,100.65" fill="none" stroke="#d9661f" stroke-width="1.6" stroke-linejoin="round"/>
<polygon points="25,20 24.96,19.35 24.83,18.71 24.62,18.09 24.33,17.5 23.97,16.96 23.54,16.46 23.04,16.03 22.5,15.67 21.91,15.38 21.29,15.17 20.65,15.04 20,15 19.35,15.04 18.71,15.17 18.09,15.38 17.5,15.67 16.96,16.03 16.46,16.46 16.03,16.96 15.67,17.5 15.38,18.09 15.17,18.71 15.04,19.35 15,20 15.04,20.65 15.17,21.29 15.38,21.91 15.67,22.5 16.03,23.04 16.46,23.54 16.96,23.97 17.5,24.33 18.09,24.62 18.71,24.83 19.35,24.96 20,25 20.65,24.96 21.29,24.83 21.91,24.62 22.5,24.33 23.04,23.97 23.54,23.54 23.97,23.04 24.33,22.5 24.62,21.91 24.83,21.29 24.96,20.65" fill="none" stroke="#d9661f" stroke-width="1.6" stroke-linejoin="round"/>
<polygon points="185,20 184.96,19.35 184.83,18.71 184.62,18.09 184.33,17.5 183.97,16.96 183.54,16.46 183.04,16.03 182.5,15.67 181.91,15.38 181.29,15.17 180.65,15.04 180,15 179.35,15.04 178.71,15.17 178.09,15.38 177.5,15.67 176.96,16.03 176.46,16.46 176.03,16.96 175.67,17.5 175.38,18.09 175.17,18.71 175.04,19.35 175,20 175.04,20.65 175.17,21.29 175.38,21.91 175.67,22.5 176.03,23.04 176.46,23.54 176.96,23.97 177.5,24.33 178.09,24.62 178.71,24.83 179.35,24.96 180,25 180.65,24.96 181.29,24.83 181.91,24.62 182.5,24.33 183.04,23.97 183.54,23.54 183.97,23.04 184.33,22.5 184.62,21.91 184.83,21.29 184.96,20.65" fill="none" stroke="#d9661f" stroke-width="1.6" stroke-linejoin="round"/>
<polygon points="75,72 125,72 125,48 75,48" fill="none" stroke="#d9661f" stroke-width="1.6" stroke-linejoin="round"/>
</svg>
